<?xml version="1.0" standalone="no"?>
<!DOCTYPE svg PUBLIC "-//W3C//DTD SVG 20010904//EN"
 "http://www.w3.org/TR/2001/REC-SVG-20010904/DTD/svg10.dtd">
<svg version="1.0" xmlns="http://www.w3.org/2000/svg"
 width="810.000000pt" height="810.000000pt" viewBox="0 0 810.000000 810.000000"
 preserveAspectRatio="xMidYMid meet">
<metadata>
Created by potrace 1.11, written by Peter Selinger 2001-2013
</metadata>
<g transform="translate(0.000000,810.000000) scale(0.100000,-0.100000)"
fill="#000000" stroke="none">
<path d="M6677 8088 c-6 -4 -16 -4 -22 0 -5 3 -4 -2 4 -12 11 -13 12 -19 2
-29 -10 -9 -11 -8 -6 6 4 10 2 17 -4 17 -11 0 -15 -12 -12 -40 2 -13 0 -13 -8
-1 -5 8 -6 21 -3 30 5 13 4 14 -10 1 -8 -8 -13 -21 -11 -27 3 -7 -2 -16 -11
-19 -9 -3 -13 -11 -9 -18 3 -6 3 -8 -2 -4 -11 10 -47 -11 -40 -22 3 -6 -1 -7
-10 -4 -13 5 -6 13 27 35 24 16 39 29 33 29 -5 -1 -19 -7 -29 -15 -10 -8 -23
-12 -29 -8 -6 3 -7 1 -3 -5 7 -11 -7 -17 -29 -12 -5 1 -1 -9 10 -21 11 -12 14
-19 8 -15 -7 4 -13 2 -13 -4 0 -6 -4 -8 -10 -5 -6 3 -7 -1 -4 -9 3 -9 11 -13
18 -9 6 4 4 -1 -4 -11 -15 -20 -23 -69 -8 -60 4 3 5 11 1 17 -4 7 0 6 10 -2
18 -14 24 -26 8 -17 -5 3 -11 -3 -14 -15 -4 -15 -2 -18 7 -10 9 8 12 6 11 -9
-1 -11 -4 -23 -8 -26 -4 -4 -7 -12 -7 -18 0 -6 4 -5 9 3 7 11 11 8 17 -10 4
-13 8 -28 9 -34 0 -5 6 -9 13 -7 7 1 12 -3 12 -9 0 -6 -10 -8 -22 -5 -13 3
-17 3 -10 0 6 -3 12 -12 12 -19 0 -7 8 -16 18 -18 14 -4 14 -5 -3 -6 -17 -1
-18 -3 -5 -11 13 -9 13 -11 0 -20 -10 -6 -11 -10 -2 -10 6 0 12 -7 12 -16 0
-8 5 -12 10 -9 13 8 13 -1 -2 -28 -10 -19 -9 -21 4 -9 13 10 18 10 24 1 5 -8
3 -9 -6 -4 -10 6 -12 4 -7 -8 4 -10 1 -17 -5 -17 -6 0 -8 -3 -5 -6 4 -4 13 -1
22 6 13 11 14 10 9 -5 -6 -14 -4 -16 6 -10 9 5 11 4 6 -4 -4 -6 -11 -9 -16 -6
-5 3 -12 0 -16 -6 -4 -8 -3 -9 4 -5 7 4 12 2 12 -4 0 -6 5 -8 13 -4 7 5 6 0
-3 -11 -16 -20 -16 -22 7 -47 9 -10 20 -15 26 -11 6 3 7 1 3 -6 -4 -6 -11 -9
-16 -6 -4 3 -10 -2 -13 -10 -4 -10 -1 -12 10 -8 10 4 14 2 9 -5 -3 -6 -1 -14
4 -17 8 -5 6 -13 -5 -25 -12 -14 -13 -20 -4 -26 7 -4 10 -3 5 4 -3 6 -2 13 3
16 5 4 12 2 16 -4 4 -6 11 -7 17 -4 7 4 8 2 4 -5 -4 -6 -11 -9 -16 -6 -15 9
-5 -22 14 -40 14 -14 15 -20 4 -26 -9 -6 -7 -9 8 -9 12 0 27 -7 34 -15 7 -9
20 -13 29 -10 9 3 7 -2 -6 -12 l-22 -18 26 -19 c15 -11 23 -14 19 -8 -4 7 -2
12 3 12 6 0 11 -9 11 -21 0 -11 5 -17 10 -14 6 4 7 11 4 17 -4 7 -2 8 4 4 6
-4 8 -14 5 -24 -6 -14 -4 -15 8 -5 13 10 16 10 16 -2 0 -8 -4 -12 -9 -9 -4 3
-8 0 -8 -6 0 -6 10 -10 23 -8 16 2 21 -1 19 -14 -2 -13 2 -16 15 -11 16 6 16
5 4 -10 -8 -10 -11 -20 -7 -24 3 -3 6 -1 6 5 0 6 9 10 19 9 12 -1 17 -6 14
-15 -5 -11 -7 -11 -14 0 -5 7 -9 8 -9 2 0 -18 12 -24 31 -13 15 8 17 6 12 -7
-4 -12 -3 -15 5 -10 7 4 12 1 12 -9 0 -9 -4 -13 -10 -10 -5 3 -10 2 -10 -4 0
-5 9 -9 20 -8 11 1 20 6 20 11 0 5 3 6 6 3 4 -4 1 -14 -6 -22 -11 -13 -11 -16
0 -13 7 2 15 -3 18 -11 3 -8 0 -11 -7 -7 -8 5 -8 0 1 -19 9 -19 9 -28 0 -37
-7 -7 -12 -17 -12 -23 1 -5 10 1 20 14 11 13 20 19 20 14 0 -5 -10 -19 -23
-31 -19 -18 -26 -19 -37 -9 -10 10 -11 9 -5 -2 6 -11 4 -13 -9 -8 -9 4 -14 3
-11 -2 3 -5 -4 -12 -15 -16 -11 -4 -17 -11 -14 -17 4 -6 10 -5 16 3 8 12 9 11
6 0 -3 -9 -18 -15 -39 -17 -19 0 -36 -3 -39 -4 -11 -6 -98 -5 -94 2 2 4 13 5
24 3 12 -2 18 0 14 6 -3 6 -9 8 -12 5 -3 -3 -12 0 -20 7 -11 8 -14 8 -9 0 13
-21 -18 -21 -38 1 -11 12 -16 16 -12 10 6 -9 2 -11 -12 -7 -13 3 -21 1 -21 -8
0 -7 -3 -9 -6 -6 -4 4 -1 13 6 22 8 9 8 15 2 15 -6 0 -14 -5 -17 -11 -5 -6
-13 -3 -22 10 -8 12 -18 19 -23 16 -4 -3 -11 0 -13 5 -3 6 -4 5 -3 -2 2 -7 9
-12 15 -11 16 4 14 -2 -6 -18 -11 -10 -14 -10 -9 -1 4 7 2 13 -6 14 -7 0 -20
2 -28 3 -8 1 -22 -4 -30 -9 -13 -10 -13 -9 0 8 14 18 13 19 -5 13 -19 -7 -19
-7 -1 7 18 14 18 15 -3 13 -11 -1 -21 -5 -21 -9 0 -4 -5 -8 -11 -8 -6 0 -8 7
-5 16 4 10 2 13 -6 8 -7 -4 -22 -8 -34 -9 -18 0 -20 2 -12 12 13 16 3 17 -24
2 -18 -10 -19 -8 -13 11 5 15 4 20 -4 16 -6 -4 -11 -15 -11 -24 0 -15 -2 -15
-10 -2 -8 12 -10 12 -10 1 0 -8 -3 -11 -6 -8 -4 4 -2 13 4 20 9 10 8 14 -3 14
-8 0 -15 -4 -15 -8 0 -4 -11 -6 -24 -5 -17 1 -21 5 -15 12 6 7 3 16 -8 25 -16
13 -17 12 -4 -3 12 -16 11 -18 -2 -18 -9 0 -21 8 -26 18 -6 10 -11 12 -11 4 0
-7 -5 -10 -10 -7 -6 4 -8 12 -4 18 3 7 -1 3 -10 -7 -8 -10 -13 -24 -10 -30 3
-6 -6 1 -19 16 -14 15 -27 24 -30 22 -3 -3 -21 -1 -40 4 -29 8 -35 7 -30 -4 3
-8 0 -14 -7 -14 -6 0 -9 3 -7 8 3 4 1 16 -4 27 -7 18 -8 18 -8 2 -1 -10 -6
-15 -11 -12 -6 4 -7 12 -3 18 4 7 0 6 -10 -2 -18 -15 -23 -26 -7 -16 16 10 11
-1 -7 -16 -9 -8 -14 -9 -10 -3 4 7 1 17 -7 23 -15 13 -27 5 -20 -13 3 -7 -2
-13 -10 -13 -8 0 -13 4 -10 9 3 4 0 8 -5 8 -6 0 -11 -7 -11 -15 0 -13 -4 -14
-22 -4 -21 11 -22 11 -9 -5 12 -14 12 -19 1 -29 -9 -8 -11 -8 -7 -1 4 7 0 14
-7 17 -10 4 -13 0 -11 -14 4 -20 3 -20 -20 -5 -15 10 -26 12 -30 6 -4 -6 -1
-9 5 -8 7 2 14 -7 16 -19 3 -16 0 -21 -11 -17 -8 4 -12 11 -9 18 3 6 -5 -2
-20 -19 -33 -39 -42 -65 -25 -77 10 -7 5 -8 -16 -4 -26 5 -27 5 -11 -5 18 -11
18 -12 -5 -31 l-24 -19 24 6 c16 5 21 4 17 -4 -4 -6 -13 -11 -21 -11 -8 0 -17
-5 -21 -12 -4 -6 -3 -8 3 -5 6 4 19 0 29 -8 18 -13 18 -14 -3 -8 -18 4 -23 1
-23 -14 0 -10 -6 -25 -12 -32 -9 -10 -9 -12 -1 -7 6 3 14 2 18 -4 3 -5 -2 -10
-12 -10 -15 0 -15 -2 -3 -9 8 -6 18 -7 24 -4 5 3 6 1 2 -6 -4 -6 -11 -9 -15
-6 -5 2 -8 -6 -7 -18 1 -12 -3 -25 -9 -29 -6 -5 -5 -8 3 -8 7 0 10 -5 6 -12
-4 -7 -3 -8 5 -4 6 4 8 13 5 19 -4 7 -1 6 7 -1 12 -11 10 -16 -10 -33 l-24
-20 26 5 c16 3 25 1 22 -5 -4 -5 -14 -9 -23 -9 -11 -1 -8 -6 11 -16 22 -12 26
-18 17 -29 -8 -10 -8 -15 2 -21 8 -5 3 -12 -17 -20 -25 -11 -20 -20 8 -15 4 0
7 -3 7 -9 0 -5 -8 -10 -17 -10 -14 0 -15 -2 -4 -9 11 -7 11 -9 0 -14 -10 -4
-10 -6 -1 -6 6 -1 12 -6 12 -12 0 -5 -4 -7 -10 -4 -5 3 -10 1 -10 -4 0 -6 4
-11 9 -11 5 0 12 -7 15 -16 5 -14 4 -15 -8 -5 -11 9 -13 7 -13 -14 0 -22 2
-24 16 -13 10 8 8 4 -4 -10 -15 -18 -17 -27 -8 -41 9 -14 8 -18 -3 -18 -7 0
-11 4 -8 8 2 4 0 10 -5 14 -10 6 -5 -40 6 -59 4 -6 0 -5 -9 2 -13 10 -18 10
-24 1 -4 -7 -3 -9 3 -6 6 4 13 -4 15 -18 3 -13 1 -22 -4 -19 -5 3 -16 0 -24
-7 -12 -10 -12 -14 6 -26 11 -8 20 -20 20 -26 0 -7 -4 -6 -10 3 -7 10 -10 11
-11 3 -4 -34 -20 -64 -30 -57 -5 3 -6 10 -3 16 4 7 2 8 -5 4 -6 -4 -8 -12 -5
-18 4 -6 -4 -19 -17 -30 -22 -18 -22 -18 -2 -9 19 9 22 8 20 -8 -1 -13 -6 -17
-17 -13 -13 5 -13 4 0 -13 14 -17 14 -18 -9 -6 -16 9 -21 9 -16 2 9 -15 -14
-43 -29 -34 -6 4 -5 -1 3 -10 12 -16 8 -22 -12 -18 -5 1 -6 -3 -2 -9 5 -8 11
-8 21 1 7 6 12 15 9 19 -6 10 24 35 32 26 3 -3 1 -6 -5 -6 -7 0 -12 -6 -12
-13 0 -8 -9 -22 -20 -32 -16 -14 -18 -21 -8 -27 8 -6 5 -7 -9 -3 -16 4 -23 2
-23 -7 -1 -7 -7 -2 -15 12 -8 14 -14 20 -15 13 0 -7 -7 -10 -15 -7 -8 4 -15 1
-15 -4 0 -6 8 -9 18 -7 11 2 19 -3 19 -11 0 -8 -4 -10 -11 -5 -6 5 -19 7 -28
6 -10 -2 -21 2 -25 7 -3 6 -2 8 4 5 5 -3 10 1 10 10 0 12 -5 10 -20 -8 -18
-22 -19 -22 -13 -3 4 14 2 21 -8 21 -8 0 -12 -6 -9 -13 3 -9 -2 -11 -17 -7
-17 5 -19 8 -8 15 10 8 10 9 -2 5 -8 -2 -24 3 -35 12 -18 15 -19 15 -6 -1 7
-10 10 -18 5 -18 -14 0 -31 14 -37 30 -4 12 -6 11 -6 -2 -1 -10 -6 -18 -12
-18 -6 0 -9 7 -5 15 3 8 1 15 -4 15 -6 0 -10 -8 -10 -17 0 -15 -2 -16 -9 -3
-6 8 -8 17 -6 20 5 8 -27 6 -40 -2 -13 -8 -47 16 -38 26 4 4 0 4 -10 0 -9 -3
-14 -11 -10 -17 3 -6 1 -7 -6 -3 -9 6 -9 11 0 22 10 12 9 13 -5 8 -9 -3 -16
-10 -16 -15 0 -5 -5 -9 -12 -9 -6 0 -3 9 8 21 10 11 13 19 7 17 -6 -2 -19 6
-28 17 -16 19 -16 19 -5 -3 7 -13 9 -26 6 -29 -9 -9 -25 44 -21 67 2 11 0 18
-6 15 -5 -4 -7 -11 -4 -16 4 -5 2 -9 -3 -9 -12 0 -34 49 -26 61 3 5 0 8 -8 7
-7 -2 -12 3 -10 11 2 11 0 12 -10 3 -10 -7 -18 -8 -28 0 -13 8 -12 9 2 5 12
-4 16 0 15 13 -1 10 -4 18 -7 18 -22 -2 -31 4 -26 17 3 9 -1 18 -9 21 -8 4
-15 11 -15 18 -1 21 -66 87 -88 89 -14 1 -18 5 -12 11 13 13 13 26 -1 26 -5 0
-8 -4 -5 -8 3 -5 -1 -9 -8 -9 -8 0 -12 7 -9 15 5 11 1 13 -18 7 -22 -6 -22 -6
-7 6 13 11 15 18 7 29 -9 13 -10 13 -6 -2 6 -17 -16 -19 -30 -3 -4 4 -2 5 5 1
7 -5 12 -1 12 10 0 11 -6 15 -20 11 -19 -5 -24 12 -7 24 5 3 1 9 -8 12 -9 4
-13 3 -10 -3 3 -6 1 -10 -6 -10 -6 0 -9 8 -7 18 3 11 0 19 -8 20 -8 1 -21 3
-29 4 -8 1 -12 5 -9 10 3 4 0 8 -5 8 -6 0 -11 5 -11 11 0 5 6 7 13 3 8 -5 7
-2 -2 10 -10 12 -17 14 -25 6 -5 -5 -15 -10 -20 -10 -6 0 -4 5 4 10 10 6 11
10 3 10 -7 0 -13 5 -13 11 0 5 5 7 12 3 7 -4 8 -3 4 4 -4 6 -14 8 -23 5 -10
-4 -14 -2 -10 4 4 6 -4 14 -18 17 -14 4 -25 11 -25 17 0 6 5 7 10 4 6 -3 10
-1 10 5 0 7 -7 9 -16 6 -18 -7 -47 11 -39 24 3 5 1 11 -4 14 -5 3 -7 -8 -6
-25 1 -16 0 -27 -4 -24 -6 7 -8 13 -10 41 -1 13 -4 14 -15 5 -11 -9 -16 -9
-22 0 -5 8 -3 9 7 4 12 -8 12 -6 0 8 -7 9 -18 14 -24 10 -7 -4 -8 0 -3 12 5
15 4 16 -9 5 -8 -7 -12 -17 -8 -23 3 -6 1 -7 -5 -3 -6 4 -8 14 -5 24 5 14 3
15 -8 5 -16 -16 -29 -17 -29 -2 0 5 5 7 12 3 7 -4 8 -3 4 5 -4 6 -11 9 -16 6
-5 -3 -16 3 -26 12 -17 17 -18 17 -11 0 5 -13 3 -17 -5 -15 -7 3 -13 10 -13
15 0 6 -4 15 -9 20 -5 4 -6 3 -3 -3 4 -7 0 -15 -8 -18 -9 -3 -18 1 -22 10 -5
13 -7 13 -14 2 -7 -11 -9 -11 -9 1 0 11 -3 11 -17 0 -15 -12 -16 -12 -10 5 6
15 5 17 -6 8 -23 -19 -83 -1 -70 21 5 8 2 8 -9 0 -8 -7 -19 -9 -23 -5 -5 4 -5
1 -1 -6 4 -7 12 -10 17 -7 5 3 6 -1 3 -9 -3 -9 -10 -16 -16 -16 -5 0 -7 4 -3
9 6 10 -44 9 -61 -1 -6 -4 -11 -1 -11 7 0 8 5 11 10 8 6 -3 7 -1 3 5 -10 17
-26 15 -26 -3 0 -12 -5 -13 -27 -4 -23 9 -30 6 -51 -18 -13 -15 -21 -23 -19
-18 3 6 -1 16 -9 23 -12 11 -14 10 -14 -6 0 -15 -7 -20 -27 -20 -16 0 -32 5
-36 12 -5 6 -6 2 -3 -9 5 -16 1 -21 -16 -22 -18 -2 -20 0 -8 8 12 8 11 9 -5 7
-21 -3 -45 -21 -45 -34 0 -3 6 -1 14 5 11 9 16 9 22 0 4 -7 3 -9 -4 -5 -6 3
-13 3 -16 -2 -8 -13 -61 -8 -58 7 1 7 -2 10 -8 6 -7 -4 -6 -13 2 -28 10 -19 9
-21 -4 -9 -10 8 -19 9 -22 3 -3 -5 0 -12 6 -15 7 -3 3 -3 -9 -1 -12 3 -25 0
-29 -6 -5 -8 -3 -10 7 -4 8 4 5 -1 -6 -12 -11 -11 -23 -16 -26 -10 -4 5 -9 4
-13 -4 -3 -8 -3 -4 0 9 3 13 1 22 -6 22 -6 0 -9 -4 -5 -9 3 -5 1 -12 -5 -16
-6 -4 -8 -10 -6 -14 3 -4 1 -13 -3 -20 -6 -10 -10 -9 -14 4 -5 10 -3 14 5 9 7
-4 8 -3 4 5 -4 6 -13 8 -19 4 -7 -4 -14 -8 -17 -8 -3 0 -16 -9 -30 -19 -14
-11 -18 -16 -7 -13 9 4 17 2 17 -3 0 -6 -5 -10 -11 -10 -5 0 -7 -5 -3 -12 4
-6 3 -8 -4 -4 -5 3 -12 3 -15 -1 -2 -5 -2 -3 -1 4 2 7 -1 15 -7 18 -5 4 -8 1
-7 -6 2 -7 -2 -13 -9 -14 -6 0 -15 -4 -20 -9 -4 -5 -3 -6 4 -2 6 3 14 2 17 -3
7 -10 -22 -24 -33 -16 -5 2 -7 -7 -5 -20 1 -14 -2 -25 -8 -25 -6 0 -8 6 -5 13
3 8 -1 14 -8 14 -7 0 -10 -8 -7 -19 5 -20 -14 -48 -32 -48 -6 0 -2 7 8 15 11
8 16 15 10 15 -19 0 -33 -16 -30 -35 5 -29 -3 -36 -24 -25 -13 7 -21 7 -26 -2
-4 -6 -3 -8 3 -5 6 4 17 0 24 -9 10 -12 10 -15 -2 -12 -9 2 -14 -5 -13 -19 0
-12 -3 -20 -8 -17 -4 3 -16 0 -25 -6 -13 -8 -13 -10 -3 -7 11 3 16 -2 18 -16
0 -13 -2 -17 -6 -10 -6 9 -11 7 -20 -7 -10 -17 -9 -18 6 -13 15 6 15 5 3 -10
-7 -9 -16 -15 -20 -13 -4 3 -7 -4 -7 -14 0 -10 3 -17 6 -15 3 2 11 -5 18 -15
7 -13 8 -21 2 -25 -6 -4 -9 -1 -8 6 2 7 -7 14 -19 15 -14 1 -20 -3 -16 -12 3
-8 10 -11 17 -7 7 4 7 1 -1 -9 -7 -8 -9 -19 -5 -23 4 -5 1 -5 -6 -1 -7 4 -10
12 -7 17 3 5 -1 6 -10 2 -13 -4 -14 -7 -3 -14 10 -6 10 -11 0 -21 -9 -9 -12
-9 -12 2 0 7 -3 10 -7 7 -3 -4 2 -16 11 -26 17 -19 17 -19 -6 -15 -12 2 -17 2
-10 -2 6 -3 12 -10 12 -15 0 -6 -4 -8 -8 -5 -4 2 -14 0 -22 -6 -12 -8 -12 -9
2 -4 12 3 22 -2 29 -17 11 -19 10 -20 -3 -10 -16 14 -16 13 -19 -42 -1 -13 -5
-22 -9 -20 -9 6 -7 -11 4 -37 4 -9 5 -22 1 -27 -3 -6 0 -8 9 -5 15 6 17 -18 3
-32 -11 -11 -8 -44 4 -44 5 0 7 -5 4 -10 -4 -6 -11 -8 -16 -5 -5 3 -6 -1 -3
-9 3 -9 10 -13 15 -10 5 3 9 0 9 -5 0 -6 -4 -11 -10 -11 -5 0 -10 -5 -10 -11
0 -5 5 -7 10 -4 6 3 10 1 10 -4 0 -6 -5 -11 -10 -11 -6 0 -5 -6 2 -14 10 -11
16 -11 28 -2 13 10 13 9 1 -7 -9 -12 -17 -14 -26 -7 -8 7 -12 5 -12 -5 0 -7 3
-14 6 -13 20 2 31 -3 26 -12 -3 -5 -13 -6 -22 -3 -15 6 -16 5 -3 -9 9 -10 19
-13 25 -7 5 5 14 9 20 9 5 0 5 -4 -2 -8 -7 -4 -13 -21 -13 -37 -1 -46 3 -65
11 -60 17 11 19 -30 2 -44 -17 -13 -17 -13 0 -8 12 5 20 0 27 -16 5 -12 9 -18
9 -13 1 6 7 1 15 -9 10 -15 11 -25 4 -39 -9 -16 -7 -18 6 -13 10 4 15 3 11 -2
-3 -5 1 -11 7 -14 10 -3 10 -8 -1 -18 -8 -8 -11 -9 -7 -2 3 6 2 14 -3 17 -14
9 -21 -8 -11 -24 8 -13 12 -13 32 -1 20 13 22 12 11 -1 -7 -8 -10 -18 -6 -22
4 -4 -1 -4 -10 0 -10 3 -17 3 -15 -2 5 -18 -12 -75 -21 -69 -5 3 -12 1 -15 -4
-7 -10 13 -9 31 2 6 4 15 3 18 -3 4 -6 1 -9 -7 -8 -7 2 -12 -2 -11 -9 1 -6 -4
-14 -13 -17 -10 -4 -13 -2 -8 6 4 6 3 8 -3 5 -6 -4 -10 -18 -10 -32 0 -14 4
-22 10 -18 6 3 7 1 3 -6 -6 -9 -11 -9 -21 -1 -9 7 -15 7 -19 1 -4 -5 2 -14 11
-20 16 -9 16 -10 -4 -8 -12 0 -19 5 -16 11 4 5 -1 7 -12 2 -16 -6 -16 -4 -4
11 13 15 12 16 -6 9 -33 -12 -40 -12 -38 4 2 10 -5 16 -17 17 -13 1 -18 -2
-14 -9 4 -7 2 -8 -4 -4 -7 4 -12 14 -12 22 0 8 -6 14 -12 14 -9 0 -8 4 2 11
12 8 11 9 -5 7 -12 -2 -19 2 -17 10 1 8 -2 11 -8 7 -6 -3 -7 -11 -4 -17 4 -6
2 -8 -4 -4 -5 3 -13 0 -16 -6 -3 -7 -3 -3 0 10 4 17 1 22 -13 22 -10 0 -26 14
-35 30 -12 21 -25 30 -42 30 -16 0 -27 7 -31 20 -3 11 -10 20 -15 20 -5 0 -7
9 -5 20 2 11 0 18 -6 15 -5 -4 -9 -1 -9 6 0 7 -3 9 -6 6 -4 -4 -1 -13 5 -21 9
-11 9 -16 0 -22 -8 -4 -9 -3 -5 4 4 7 2 12 -3 12 -6 0 -11 11 -11 24 0 16 -7
27 -20 31 -18 6 -25 17 -21 38 1 4 -8 3 -19 -3 -13 -7 -20 -7 -20 0 0 5 5 10
11 10 5 0 7 5 4 10 -4 6 -11 7 -17 4 -7 -5 -8 -2 -3 6 6 9 2 10 -15 5 -20 -6
-21 -5 -9 8 8 8 18 12 23 9 5 -3 6 0 2 7 -6 9 -11 9 -22 0 -13 -10 -14 -7 -9
22 4 23 2 29 -4 19 -5 -8 -8 -17 -5 -21 2 -4 1 -10 -4 -13 -12 -7 -12 36 0 52
9 10 8 12 -3 10 -8 -2 -13 3 -11 10 1 8 -2 11 -8 7 -6 -3 -8 -10 -6 -14 3 -4
-1 -8 -8 -8 -7 0 -13 7 -12 16 1 9 -6 15 -14 13 -9 -1 -5 7 10 19 l25 22 -25
-8 c-22 -7 -23 -6 -12 8 10 12 10 17 1 23 -8 5 -9 3 -4 -6 5 -8 4 -11 -3 -6
-15 9 -3 38 12 29 6 -3 3 3 -7 14 -9 11 -14 23 -10 28 5 4 3 5 -3 2 -7 -4 -15
0 -18 9 -5 12 -2 15 9 10 9 -3 13 -2 10 4 -3 6 -13 10 -20 10 -9 0 -12 6 -9
15 5 13 9 13 23 3 13 -10 14 -10 4 2 -14 15 -46 24 -38 10 3 -5 1 -11 -4 -14
-5 -4 -8 2 -6 11 2 10 4 18 5 18 1 0 3 8 5 18 2 9 -1 15 -6 11 -5 -3 -6 -10
-3 -16 5 -7 2 -8 -5 -4 -7 5 -10 15 -7 23 5 11 2 13 -9 9 -9 -3 -13 -2 -10 4
3 6 1 10 -5 10 -8 0 -7 6 1 21 8 15 8 19 0 15 -6 -4 -11 -2 -11 4 0 6 -4 8
-10 5 -5 -3 -10 1 -10 10 0 9 5 13 10 10 6 -3 10 -1 10 4 0 15 -13 14 -29 -1
-9 -8 -11 -8 -8 -2 4 7 0 14 -8 18 -8 3 -15 12 -15 19 0 8 -7 20 -15 27 -12
10 -18 10 -30 0 -12 -10 -19 -10 -27 -2 -15 15 -28 15 -28 2 0 -5 5 -9 11 -7
6 1 13 -4 15 -11 1 -7 0 -8 -3 -2 -3 8 -9 7 -19 -1 -8 -6 -14 -8 -14 -4 0 4
-8 1 -17 -6 -11 -10 -14 -10 -9 -1 4 6 2 12 -3 12 -6 0 -11 -7 -11 -15 0 -8
-9 -15 -20 -15 -11 0 -20 -5 -20 -11 0 -8 -6 -7 -17 2 -13 12 -13 9 3 -16 18
-30 18 -30 -1 -15 -15 12 -17 12 -10 1 6 -11 4 -13 -8 -8 -10 3 -17 2 -17 -3
0 -6 4 -10 8 -10 5 0 9 -7 9 -15 0 -13 -3 -13 -18 1 -13 12 -19 12 -25 3 -4
-8 -3 -10 4 -5 17 10 15 -9 -3 -24 -8 -6 -20 -8 -27 -4 -9 6 -9 3 1 -9 12 -15
12 -17 -4 -11 -13 5 -16 4 -11 -4 4 -7 1 -21 -7 -33 -9 -13 -17 -16 -22 -10
-3 6 -1 11 6 11 7 0 10 3 6 6 -3 3 -14 1 -24 -5 -10 -6 -12 -11 -5 -11 6 0 12
-4 12 -9 0 -5 -10 -7 -22 -4 -18 4 -20 3 -8 -6 13 -9 13 -12 1 -23 -8 -7 -11
-8 -8 -2 3 6 0 11 -8 11 -10 0 -11 -5 -5 -18 7 -12 5 -19 -5 -23 -9 -3 -12
-12 -8 -22 4 -12 2 -15 -8 -12 -8 3 -13 12 -11 22 2 9 -1 16 -7 16 -5 0 -8
-11 -6 -25 2 -20 0 -23 -12 -14 -7 7 -16 9 -20 5 -3 -3 -1 -6 6 -6 7 0 9 -4 6
-10 -3 -5 2 -10 12 -11 16 0 16 -1 -2 -9 -28 -12 -37 -12 -29 2 4 6 3 8 -4 4
-6 -3 -9 -18 -6 -31 2 -14 0 -25 -6 -25 -6 0 -9 4 -6 9 3 5 -2 15 -12 22 -15
13 -16 12 -4 -3 12 -14 11 -19 -6 -29 -19 -12 -19 -14 -4 -26 9 -7 13 -13 7
-12 -5 1 -19 0 -30 -1 -17 -2 -17 -3 5 -10 24 -8 24 -8 3 -9 -13 -1 -23 -7
-23 -16 0 -8 -6 -15 -12 -15 -9 0 -8 -4 2 -11 12 -9 11 -10 -7 -6 -24 5 -32
-7 -10 -17 6 -4 2 -4 -10 -2 -12 2 -22 1 -21 -3 2 -20 -3 -31 -14 -25 -7 4 -8
3 -4 -5 4 -6 12 -8 18 -5 6 4 3 -5 -8 -19 -12 -17 -26 -26 -37 -23 -11 3 -16
2 -13 -1 3 -4 1 -12 -5 -20 -6 -7 -8 -13 -5 -13 4 0 1 -6 -6 -14 -7 -8 -17
-12 -21 -9 -5 3 -3 -4 4 -15 7 -12 18 -18 24 -14 5 3 4 -1 -2 -10 -7 -8 -11
-17 -8 -20 3 -3 -3 -11 -12 -19 -16 -13 -17 -12 -5 2 10 14 10 18 -3 23 -10 3
-14 2 -10 -5 4 -6 -1 -19 -11 -30 -9 -10 -14 -22 -11 -26 4 -3 7 -1 7 6 0 7 5
9 12 5 7 -4 8 -3 4 4 -10 17 -1 15 14 -4 8 -8 9 -14 4 -12 -19 5 -56 -23 -50
-39 5 -11 1 -14 -13 -10 -14 3 -18 1 -14 -9 3 -8 10 -14 16 -14 6 0 7 -3 4 -6
-4 -4 -14 -1 -24 7 -9 8 -14 9 -10 2 4 -7 0 -17 -10 -23 -15 -9 -14 -10 7 -5
25 5 25 5 3 -6 -13 -7 -23 -18 -23 -25 0 -7 -4 -16 -10 -19 -6 -4 -7 1 -3 12
6 17 6 17 -14 0 -15 -13 -23 -15 -28 -7 -4 6 -4 14 -1 17 3 4 6 1 6 -6 0 -7 5
-9 11 -5 8 4 7 9 -2 15 -8 4 -19 3 -26 -3 -10 -8 -12 -7 -7 6 5 12 2 15 -10
10 -12 -5 -15 -2 -10 10 3 9 1 16 -6 16 -6 0 -8 5 -4 13 5 8 2 7 -9 -2 -10 -8
-20 -11 -24 -7 -3 3 -1 6 5 6 7 0 12 8 12 18 0 14 -2 15 -10 2 -9 -13 -10 -13
-10 1 0 8 5 20 11 26 8 8 7 13 -2 18 -7 5 -10 4 -5 -3 8 -13 -10 -26 -24 -17
-8 5 -7 11 1 21 11 14 10 15 -13 18 -7 1 -12 9 -12 19 1 9 -2 14 -7 11 -5 -2
-11 7 -15 21 -3 13 -10 23 -14 20 -4 -3 -14 3 -21 12 -10 12 -10 14 -1 9 7 -4
12 -1 12 8 0 23 -4 31 -12 29 -14 -5 -8 10 10 24 16 13 15 13 -4 4 -11 -5 -29
-8 -40 -6 -10 2 -23 4 -28 4 -5 1 -3 8 4 16 10 12 6 11 -21 -2 -42 -20 -51
-28 -22 -19 18 6 22 4 17 -8 -3 -8 -11 -14 -17 -12 -7 1 -9 1 -4 -1 4 -3 5 -9
2 -14 -4 -5 2 -6 11 -2 15 5 14 0 -6 -28 -21 -30 -21 -32 -3 -16 13 11 23 14
27 8 4 -5 2 -12 -4 -16 -17 -10 -11 -25 8 -19 10 4 13 2 7 -3 -10 -7 -35 -58
-35 -68 0 -3 10 -5 23 -6 12 0 16 -3 10 -6 -7 -2 -13 -9 -13 -14 0 -4 7 -6 15
-3 11 5 13 2 8 -12 -4 -12 -3 -15 5 -10 7 4 12 2 12 -4 0 -6 5 -8 10 -5 6 3
10 -1 10 -9 0 -9 5 -16 11 -16 5 0 7 -4 4 -10 -3 -5 1 -10 10 -10 10 0 13 5 9
13 -4 6 -3 8 1 4 14 -12 14 -36 2 -33 -7 2 -9 1 -4 -1 4 -3 4 -9 1 -15 -4 -6
2 -5 15 1 17 10 20 9 15 -4 -3 -8 1 -22 10 -30 11 -11 16 -12 16 -4 0 7 3 10
6 6 12 -12 -7 -28 -20 -18 -9 8 -13 7 -13 -4 0 -8 4 -12 9 -9 4 3 8 0 8 -5 0
-6 6 -10 13 -8 15 3 10 -45 -7 -55 -7 -5 -7 -8 -1 -8 6 0 15 4 21 10 6 6 10 3
10 -9 0 -11 -6 -17 -12 -14 -9 3 -11 -3 -7 -19 4 -19 3 -20 -7 -8 -10 13 -11
13 -7 0 2 -8 13 -14 23 -12 11 2 15 0 8 -5 -6 -4 -10 -16 -8 -26 1 -9 -2 -15
-7 -11 -5 3 -7 9 -5 13 3 4 -5 7 -17 8 -12 0 -16 -1 -9 -4 6 -3 12 -9 12 -15
0 -6 -7 -8 -15 -5 -8 4 -17 1 -21 -5 -4 -6 -3 -8 4 -4 6 3 13 2 16 -3 4 -5 -1
-8 -10 -7 -8 1 -20 9 -25 17 -6 10 -9 10 -9 2 0 -7 -7 -13 -16 -13 -8 0 -13 4
-10 8 3 5 -1 9 -8 9 -8 0 -12 -6 -9 -13 2 -6 -1 -15 -8 -20 -7 -4 -10 -3 -6 3
4 6 -1 17 -10 24 -15 12 -16 12 -10 -3 9 -25 -9 -32 -25 -9 -14 20 -14 20 -26
0 -7 -11 -10 -24 -7 -29 4 -6 -1 -7 -11 -3 -13 5 -15 3 -9 -7 5 -9 4 -11 -4
-6 -8 6 -9 12 -2 20 11 13 5 26 -11 26 -5 0 -8 -8 -6 -17 2 -10 -2 -17 -9 -16
-8 2 -10 -4 -6 -14 5 -13 8 -14 11 -3 3 9 9 5 18 -11 7 -13 13 -19 14 -13 0 7
7 15 16 18 14 5 15 4 4 -9 -15 -18 -10 -18 24 -5 17 6 27 6 32 -1 3 -6 12 -8
19 -5 7 2 16 -2 19 -10 3 -8 2 -12 -3 -9 -5 3 -13 0 -17 -6 -4 -7 -3 -9 2 -6
6 3 16 2 24 -4 13 -7 12 -9 -2 -9 -22 0 -26 -25 -14 -78 3 -13 1 -20 -5 -17
-5 4 -7 10 -4 15 3 4 -3 14 -13 21 -14 11 -15 11 -5 0 13 -15 6 -44 -8 -35 -5
3 -4 -7 1 -22 6 -15 8 -29 5 -32 -3 -3 -5 -1 -5 5 0 6 -8 14 -17 17 -10 4 -14
4 -11 1 4 -4 -7 -26 -23 -48 -17 -23 -25 -43 -20 -45 6 -2 11 -8 11 -13 0 -4
-7 -6 -16 -2 -14 5 -15 3 -4 -18 l13 -24 -24 20 c-19 16 -21 16 -10 2 12 -15
12 -20 1 -30 -10 -10 -11 -9 -5 3 5 9 4 12 -1 7 -5 -5 -9 -14 -9 -20 -1 -7 -6
-11 -12 -10 -12 3 -10 -27 3 -50 5 -8 2 -7 -9 2 -10 8 -20 11 -24 7 -3 -3 -1
-6 5 -6 16 0 11 -49 -7 -63 -12 -10 -13 -9 -7 3 4 9 2 8 -7 -2 -8 -10 -18 -14
-22 -10 -5 4 -5 1 -1 -6 4 -7 11 -10 16 -7 5 3 8 -3 7 -14 -1 -15 -4 -17 -14
-9 -11 8 -12 7 -7 -7 5 -11 3 -16 -2 -12 -6 3 -9 -6 -8 -22 1 -21 -3 -28 -14
-27 -9 0 -17 -4 -17 -10 0 -7 -11 -22 -25 -33 l-25 -22 26 15 c14 9 29 13 32
9 4 -3 -3 -11 -16 -18 -12 -6 -21 -19 -19 -28 2 -9 -2 -17 -8 -17 -5 0 -10 -5
-10 -11 0 -5 4 -8 9 -4 5 3 12 2 15 -3 7 -12 -27 -11 -35 0 -3 5 -6 -7 -7 -27
-1 -36 -24 -80 -35 -69 -3 3 -4 -2 -3 -11 1 -9 9 -21 17 -26 10 -7 7 -8 -11
-3 -22 6 -23 5 -11 -10 12 -14 11 -16 -3 -16 -16 0 -16 -1 -2 -16 9 -8 16 -18
16 -22 0 -3 -5 -1 -12 6 -7 7 -16 12 -21 12 -5 0 -1 -7 8 -16 11 -11 13 -20 5
-28 -5 -7 -6 -17 -2 -21 4 -5 -1 -5 -10 -2 -10 4 -18 2 -18 -3 0 -6 4 -10 9
-10 6 0 8 -10 6 -21 -5 -24 -35 -50 -49 -42 -5 4 -6 1 -2 -6 4 -6 11 -9 16 -6
5 3 11 1 15 -5 3 -5 -1 -10 -9 -10 -14 0 -21 -19 -17 -43 1 -5 -4 -5 -10 -1
-8 4 -9 -1 -5 -17 4 -18 2 -16 -9 6 -16 34 -20 20 -5 -20 7 -17 7 -24 0 -20
-6 3 -15 -6 -20 -20 -13 -34 -13 -38 3 -29 9 6 9 4 0 -6 -11 -12 -16 -11 -28
6 -14 17 -14 15 0 -14 9 -19 20 -30 27 -26 7 4 8 3 4 -4 -5 -9 -13 -9 -27 -2
-13 7 -19 7 -19 0 0 -5 4 -10 8 -10 5 0 9 -7 9 -15 0 -11 -4 -12 -13 -4 -8 7
-14 6 -20 -2 -4 -7 -3 -9 2 -6 6 3 15 -2 21 -12 9 -14 8 -18 -3 -18 -7 0 -10
5 -7 11 4 6 -1 5 -10 -3 -15 -12 -15 -31 -1 -31 3 0 2 5 -2 12 -4 7 -3 8 4 4
15 -9 15 -11 -5 -27 -14 -12 -16 -12 -8 0 5 9 4 12 -3 7 -6 -4 -8 -14 -5 -23
4 -10 2 -14 -5 -9 -6 3 -14 1 -18 -5 -4 -7 -3 -9 2 -6 6 3 16 2 24 -4 13 -7
12 -9 -2 -9 -9 0 -20 -5 -24 -12 -5 -7 -3 -8 7 -3 12 8 12 6 0 -8 -7 -9 -9
-17 -4 -17 5 0 9 -10 10 -21 2 -20 1 -21 -12 -3 -7 11 -17 16 -21 11 -4 -4 -2
-7 6 -7 10 0 10 -4 -1 -17 -10 -11 -10 -14 -1 -9 19 12 14 -8 -9 -33 -21 -22
-21 -23 -2 -17 15 5 19 2 18 -13 -1 -11 -6 -26 -13 -34 -7 -7 -9 -17 -5 -21 4
-4 0 -4 -8 -1 -20 8 -45 -20 -28 -31 7 -4 9 -3 5 4 -3 6 -1 14 5 17 7 5 10 0
7 -11 -2 -11 -11 -19 -20 -19 -9 0 -20 -4 -25 -9 -4 -5 -3 -6 4 -2 20 11 26
-15 7 -30 -11 -9 -13 -13 -6 -9 7 4 12 0 12 -9 0 -10 -6 -13 -17 -10 -10 3 -7
-1 6 -9 20 -12 21 -15 7 -20 -11 -5 -15 -3 -10 5 4 7 3 8 -4 4 -17 -10 -15
-29 3 -23 19 8 30 -12 16 -26 -9 -9 -11 -8 -8 3 2 8 2 12 0 7 -3 -4 -10 -5
-16 -1 -7 3 -2 -3 10 -14 12 -11 19 -23 15 -27 -4 -5 -1 -5 6 -1 7 4 10 12 7
17 -4 5 2 6 12 2 15 -6 16 -4 5 9 -11 13 -8 15 24 12 33 -2 34 -1 17 12 -17
13 -17 14 4 20 13 3 20 11 16 17 -4 6 -1 7 7 2 10 -6 12 -4 6 10 -5 14 -4 16
7 7 10 -9 17 -8 25 0 9 9 12 9 12 0 0 -7 5 -12 11 -12 8 0 8 5 -1 15 -9 11
-16 12 -25 5 -8 -7 -12 -5 -12 5 0 8 2 13 5 10 3 -2 13 0 23 5 11 7 20 7 24 0
3 -5 13 -6 23 -3 16 7 16 6 0 -10 -10 -10 -14 -25 -11 -34 4 -10 2 -14 -4 -10
-5 3 -10 0 -10 -8 0 -8 4 -12 9 -9 4 3 5 -2 2 -10 -3 -9 -11 -13 -16 -10 -6 4
-5 -4 2 -16 10 -19 10 -22 -2 -17 -11 4 -14 -1 -12 -19 1 -13 -2 -26 -7 -30
-5 -3 -9 -10 -9 -15 0 -6 7 -3 16 5 21 22 27 20 12 -4 -7 -11 -16 -20 -20 -20
-4 0 -3 -11 2 -24 10 -27 -4 -47 -29 -39 -14 4 -14 3 -1 -6 8 -6 24 -8 34 -5
16 5 17 4 5 -9 -8 -8 -21 -12 -29 -10 -10 3 -8 -1 4 -11 19 -15 12 -22 -16
-17 -4 0 -5 -6 -1 -15 5 -12 7 -13 14 -3 4 8 11 11 14 7 7 -6 -13 -47 -30 -61
-6 -5 -3 -7 8 -3 22 7 22 -3 0 -21 -10 -8 -12 -12 -5 -8 6 3 12 1 12 -5 0 -6
5 -8 12 -4 7 4 8 3 4 -4 -4 -7 -15 -12 -24 -12 -16 -1 -16 -1 0 -11 21 -12 12
-42 -11 -35 -11 4 -10 1 4 -9 17 -14 18 -18 6 -37 -11 -18 -11 -20 1 -15 8 3
15 0 15 -6 0 -7 4 -21 7 -32 5 -14 3 -13 -7 4 -9 15 -17 20 -21 12 -4 -6 -2
-11 3 -11 6 0 11 -10 11 -22 0 -19 -2 -20 -11 -8 -9 13 -10 13 -6 0 2 -8 10
-15 17 -15 7 0 15 -6 18 -13 2 -7 -2 -10 -12 -6 -9 3 -16 1 -16 -6 0 -6 4 -9
9 -5 5 3 12 1 16 -5 3 -5 0 -10 -7 -10 -10 0 -9 -3 1 -9 10 -6 23 -5 35 1 12
6 22 9 23 7 1 -2 5 -1 9 3 3 4 -3 6 -14 3 -12 -2 -25 1 -28 7 -4 7 -2 8 4 4 7
-4 12 -2 12 4 0 6 5 8 10 5 6 -4 10 -3 9 2 -1 4 -1 10 1 13 1 3 4 16 6 30 2
13 10 28 17 33 7 5 2 6 -13 3 -14 -3 -19 -3 -12 0 6 3 9 10 6 16 -3 5 0 8 8 6
7 -2 15 2 16 7 1 6 -2 10 -7 10 -5 0 -13 4 -18 9 -5 5 -2 6 6 1 10 -6 11 -2 6
16 l-8 24 21 -25 c15 -18 20 -20 18 -8 -1 9 -10 26 -20 37 -17 19 -17 20 4 31
17 9 19 14 9 26 -7 9 -8 14 -1 14 6 0 12 -6 15 -12 3 -10 8 -10 21 1 9 8 19
11 23 7 3 -3 1 -6 -6 -6 -7 0 -9 -5 -5 -12 4 -6 3 -8 -3 -5 -7 4 -10 -3 -9
-18 0 -14 4 -25 9 -25 4 0 7 -5 7 -11 0 -5 -4 -8 -9 -4 -5 3 -12 1 -16 -5 -3
-5 -2 -10 3 -10 6 0 13 -7 16 -16 5 -14 4 -15 -9 -4 -13 11 -14 10 -9 -4 3 -9
9 -16 13 -16 4 0 8 -7 8 -15 0 -20 -7 -19 -24 3 -13 15 -13 15 -3 -5 9 -20 21
-27 41 -25 3 1 6 -5 6 -13 0 -8 -4 -12 -8 -10 -3 3 -9 -4 -12 -15 -4 -16 -2
-18 13 -10 13 7 17 6 15 -8 -1 -9 -4 -24 -7 -32 -9 -21 -6 -50 3 -44 5 2 6 11
3 18 -3 8 0 17 7 22 8 4 10 3 5 -5 -4 -6 -2 -19 6 -28 7 -9 8 -14 2 -10 -7 4
-14 0 -18 -8 -3 -8 0 -15 7 -15 8 0 6 -4 -3 -10 -13 -8 -12 -10 3 -10 10 0 15
-4 12 -10 -3 -5 -1 -10 5 -10 6 0 9 -4 6 -9 -4 -5 6 -19 21 -30 16 -11 23 -21
16 -21 -6 0 -15 4 -18 10 -8 13 -25 13 -25 -1 0 -5 4 -8 9 -4 5 3 13 0 17 -6
3 -6 0 -15 -7 -20 -10 -6 -4 -10 21 -15 29 -6 31 -9 15 -15 -17 -6 -15 -8 10
-9 30 -2 30 -2 5 -10 -24 -8 -24 -8 -2 -9 25 -1 28 -11 10 -29 -8 -8 -9 -12
-1 -12 6 0 13 5 15 12 2 6 14 12 26 13 17 1 19 -1 10 -12 -9 -11 -13 -12 -19
-1 -6 8 -9 9 -9 2 0 -6 8 -18 17 -25 9 -8 14 -9 10 -3 -8 13 16 37 26 27 4 -3
7 -4 7 0 0 3 -6 12 -14 20 -12 11 -11 15 8 27 19 12 20 11 8 -2 -10 -13 -10
-17 3 -22 10 -3 13 -2 10 5 -4 5 -1 18 6 27 7 9 9 14 5 10 -13 -11 -36 11 -29
28 3 8 15 14 27 14 21 1 21 1 1 13 -11 7 -21 18 -23 25 -3 16 3 15 22 -3 13
-13 14 -12 12 12 -2 16 1 31 6 34 5 3 3 9 -5 12 -11 4 -15 1 -12 -12 2 -10 -3
-18 -11 -18 -11 0 -11 3 -1 15 6 8 11 18 11 21 -1 3 2 5 6 4 4 -1 11 4 14 13
4 10 2 13 -6 8 -8 -5 -9 -2 -5 10 4 10 7 20 7 23 0 3 8 -1 18 -8 14 -11 13
-10 -2 9 -11 12 -15 22 -10 22 5 0 0 8 -11 17 -16 12 -16 14 -3 10 10 -3 20
-2 23 3 4 6 2 10 -3 10 -5 0 -6 14 -4 31 3 22 7 27 13 18 7 -11 9 -10 9 4 0 9
0 20 -1 23 0 4 5 11 13 16 9 6 5 7 -12 3 -17 -4 -21 -3 -11 3 11 8 11 10 0 15
-11 4 -11 6 -1 6 7 1 10 6 7 12 -4 6 0 9 11 7 11 -2 22 -10 26 -18 6 -13 7
-13 7 1 1 9 10 19 20 22 14 3 18 1 14 -9 -3 -8 -9 -12 -13 -9 -11 7 -6 -22 5
-32 4 -4 5 -2 1 4 -5 9 -2 11 9 7 12 -5 13 -10 4 -20 -6 -8 -16 -11 -23 -7 -6
3 -7 2 -3 -3 5 -5 14 -9 20 -9 7 -1 11 -6 10 -12 -2 -9 24 -11 35 -3 1 2 6 3
11 4 5 0 13 5 18 9 4 5 1 7 -7 5 -15 -3 -24 39 -9 48 4 2 5 12 2 22 -6 16 -6
16 11 0 22 -23 25 -23 19 2 -3 11 -10 20 -17 20 -6 0 -5 4 3 9 8 5 11 16 8 25
-3 8 -2 18 3 21 6 4 10 11 10 16 0 6 -6 7 -13 3 -8 -5 -8 -3 2 9 7 9 17 15 21
12 5 -3 11 -1 14 4 4 5 -5 8 -19 6 -20 -2 -23 0 -14 11 6 8 15 12 19 9 4 -3 4
10 0 29 -7 31 -6 33 17 30 19 -2 22 1 13 10 -7 10 -6 17 4 25 10 8 16 9 21 1
3 -5 11 -10 18 -10 6 0 2 6 -8 14 -11 8 -23 12 -26 10 -4 -2 -9 5 -12 17 -5
17 -3 18 9 8 12 -9 13 -9 9 3 -3 8 2 21 11 29 16 13 16 12 6 -7 -6 -11 -7 -26
-3 -33 5 -7 11 -9 13 -5 3 5 4 4 2 -2 -1 -6 3 -17 9 -23 7 -7 13 -16 13 -21 1
-6 2 -15 3 -21 0 -5 6 -7 13 -3 7 4 8 3 4 -5 -4 -6 -12 -9 -17 -6 -5 3 -6 -1
-3 -9 3 -9 10 -14 14 -11 4 3 11 -3 15 -12 3 -10 1 -19 -5 -21 -6 -2 -2 -11
10 -19 19 -13 24 -14 32 -2 7 10 8 8 3 -7 -3 -13 1 -26 10 -34 8 -7 12 -17 8
-24 -4 -6 1 -5 10 2 9 8 19 23 23 34 6 19 6 19 20 1 7 -10 14 -16 14 -13 7 31
7 41 -2 47 -7 3 -8 1 -4 -5 5 -8 1 -10 -10 -5 -15 5 -15 7 0 15 9 5 16 14 16
19 0 6 -4 8 -8 5 -5 -3 -9 1 -9 9 0 19 2 19 21 -1 9 -8 16 -11 16 -5 0 5 -7
17 -16 25 -8 9 -11 16 -5 16 6 0 11 7 11 15 0 8 -5 15 -11 15 -5 0 -7 5 -4 10
4 6 11 7 17 4 6 -4 8 -2 4 4 -3 5 0 13 6 16 7 3 2 3 -12 0 l-25 -5 25 16 c14
9 18 14 8 11 -24 -7 -29 4 -13 28 20 28 19 41 -2 25 -17 -13 -17 -13 -1 7 21
24 23 38 6 28 -10 -6 -10 -5 -1 8 7 8 9 19 5 23 -4 5 -1 5 6 1 7 -4 12 -1 12
9 0 10 -5 13 -12 9 -7 -5 -8 -3 -4 5 5 7 15 10 23 6 13 -4 13 -3 4 9 -17 21
-22 56 -7 50 12 -5 41 44 32 53 -2 2 -7 -5 -11 -16 -8 -26 -21 -27 -21 -2 0
11 3 18 7 15 4 -2 9 5 12 15 3 15 1 18 -12 14 -12 -4 -13 -3 -2 5 9 7 10 12 2
16 -7 5 -6 14 4 30 8 12 12 26 8 31 -5 4 -2 5 5 1 7 -4 9 -13 5 -19 -4 -7 0
-6 10 2 19 15 23 26 5 15 -7 -5 -9 -2 -5 9 4 11 2 14 -9 10 -7 -3 -14 0 -14 6
0 6 9 11 19 11 11 0 22 4 25 9 3 4 -6 7 -19 5 -30 -3 -30 -3 -6 24 10 12 22
18 26 14 5 -4 5 -1 0 6 -5 10 -10 11 -18 3 -6 -6 -16 -11 -22 -11 -5 0 4 10
20 21 l30 21 -30 -6 c-21 -5 -26 -4 -16 3 14 9 21 28 24 63 1 9 5 14 9 12 4
-3 8 0 8 5 0 6 7 11 16 11 8 0 12 5 9 11 -4 6 2 5 14 -2 11 -8 17 -16 13 -19
-4 -3 -7 -22 -7 -42 1 -20 -3 -34 -7 -32 -4 3 -8 0 -8 -5 0 -6 5 -11 11 -11 5
0 7 -5 4 -10 -4 -6 -11 -7 -17 -4 -6 4 -8 2 -4 -4 3 -5 3 -12 -1 -15 -5 -2 -3
-2 4 -1 6 2 14 -4 17 -12 3 -9 1 -12 -4 -9 -6 3 -10 -1 -10 -10 0 -10 5 -13
13 -9 7 5 6 0 -3 -11 -9 -11 -10 -16 -2 -11 16 9 16 -6 0 -23 -10 -11 -10 -13
-1 -7 7 4 13 2 13 -4 0 -6 5 -8 12 -4 7 4 8 3 4 -5 -4 -6 -12 -8 -18 -5 -6 4
-8 2 -4 -4 3 -6 2 -14 -4 -17 -8 -5 -7 -11 1 -21 14 -17 43 -19 33 -2 -4 7 -3
8 5 4 6 -4 9 -11 6 -16 -3 -4 1 -13 9 -19 11 -9 15 -8 20 5 8 22 8 26 -4 19
-5 -3 -7 0 -4 9 3 9 12 12 21 9 10 -4 14 -2 9 5 -3 6 -2 13 3 17 6 3 8 12 4
20 -3 10 1 15 13 15 16 0 16 2 4 9 -8 6 -18 7 -24 4 -5 -3 -6 -1 -2 6 4 6 11
9 14 7 4 -2 19 4 32 15 19 14 20 17 6 12 -15 -5 -18 -3 -13 10 4 12 2 15 -11
11 -15 -5 -15 -4 1 6 9 6 21 9 26 6 13 -8 0 37 -13 46 -8 5 -7 8 1 8 6 0 15
-4 18 -10 3 -5 16 -15 28 -21 12 -7 19 -8 15 -4 -4 5 -3 14 3 22 9 10 8 13 0
13 -7 0 -10 4 -7 8 3 5 -1 9 -9 9 -11 0 -12 -4 -3 -14 6 -7 8 -16 4 -20 -9
-10 -18 3 -22 32 -2 21 0 24 11 15 8 -7 15 -7 19 -1 3 5 1 12 -4 14 -7 4 -6 5
0 3 7 -1 10 -4 9 -6 -1 -3 3 -15 9 -27 8 -14 9 -24 2 -28 -6 -4 -8 -11 -4 -16
3 -5 10 -6 16 -3 7 4 8 2 4 -5 -4 -6 -11 -9 -16 -6 -5 3 -11 1 -15 -5 -3 -5
-2 -10 2 -10 5 0 14 -10 22 -22 l14 -23 -22 20 -23 20 13 -30 c7 -17 16 -35
21 -41 4 -6 2 -17 -5 -24 -6 -8 1 -6 17 4 16 10 26 14 22 8 -3 -5 0 -12 8 -15
10 -4 12 1 8 16 l-5 22 23 -20 24 -20 -17 25 c-9 13 -17 29 -17 35 0 5 5 2 11
-8 6 -9 15 -15 20 -11 6 4 6 11 -1 19 -10 11 -8 13 9 10 12 -2 19 0 16 6 -4 5
-1 9 5 9 7 0 5 7 -4 16 -20 20 -21 30 -1 14 8 -7 15 -11 16 -9 6 31 6 38 -1
36 -4 -1 -7 3 -7 8 1 6 8 9 15 7 8 -2 11 1 8 7 -4 6 3 20 16 33 29 29 35 60
10 51 -9 -4 1 10 23 31 22 21 35 36 28 32 -13 -7 -12 19 2 31 4 4 5 3 2 -3 -4
-7 -1 -14 7 -17 19 -7 15 26 -4 35 -11 5 -9 7 6 7 23 1 40 26 23 36 -5 4 -8 3
-7 -2 3 -7 -5 -13 -17 -13 -3 0 1 10 10 23 8 13 12 27 8 30 -3 4 5 7 18 7 13
0 19 4 14 8 -12 8 -13 22 -2 39 4 6 4 13 0 16 -5 2 -2 2 6 0 7 -2 19 1 25 6 8
7 12 4 13 -10 2 -16 -2 -19 -20 -13 -26 8 -21 2 12 -16 13 -6 21 -8 18 -3 -3
5 -1 15 4 23 11 18 5 -33 -7 -51 -4 -8 -3 -9 4 -5 7 4 12 2 12 -4 0 -6 5 -8
11 -4 8 4 7 9 -2 15 -20 12 -2 11 21 -1 16 -9 18 -8 13 6 -4 12 -3 15 5 10 8
-4 10 -2 6 7 -3 8 0 18 7 23 7 4 10 3 5 -4 -3 -6 -2 -13 3 -16 11 -7 9 13 -2
32 -5 6 -6 16 -3 21 4 5 3 11 -1 14 -5 2 -2 2 5 1 6 -2 12 1 12 6 0 6 -5 10
-10 10 -6 0 -5 6 2 14 11 12 15 12 29 0 9 -8 20 -11 24 -7 5 5 4 1 -3 -9 -11
-13 -11 -17 0 -21 8 -2 7 -3 -2 -2 -8 0 -14 7 -12 14 1 7 -2 10 -8 6 -7 -4 -7
-12 0 -26 6 -11 15 -17 20 -14 5 3 12 0 16 -6 4 -8 3 -9 -4 -5 -7 4 -12 1 -12
-8 0 -9 6 -16 13 -16 8 0 8 -3 1 -8 -6 -4 -14 -16 -17 -26 -6 -16 -5 -17 7 -7
11 9 16 9 22 0 4 -8 3 -9 -4 -5 -7 4 -14 -3 -18 -19 -3 -14 -11 -25 -18 -25
-7 0 -7 -3 -1 -8 16 -11 19 -46 3 -36 -10 6 -11 5 -1 -8 7 -8 9 -18 5 -23 -4
-4 3 -2 16 4 26 14 30 26 5 16 -15 -5 -16 -4 -6 6 10 10 16 10 24 2 8 -8 5
-17 -10 -32 -20 -20 -20 -21 -2 -18 11 2 26 8 33 15 8 6 18 9 21 5 4 -3 7 -1
7 6 0 8 -6 11 -16 7 -14 -5 -15 -4 -4 9 7 8 9 15 4 15 -4 0 3 12 17 26 13 14
23 29 21 32 -2 4 2 8 10 10 9 2 8 0 -2 -7 -8 -6 -11 -11 -6 -11 5 0 5 -6 0
-13 -5 -7 -1 -5 8 6 9 10 14 25 11 34 -5 12 -3 14 8 8 12 -7 12 -6 1 7 -10 13
-11 22 -2 37 13 26 16 26 16 2 0 -11 -5 -17 -11 -13 -5 3 -4 -2 4 -11 17 -21
20 -21 17 1 -4 24 15 63 27 55 6 -3 7 -1 3 6 -6 9 -12 9 -24 -1 -15 -12 -16
-11 -3 5 7 9 21 17 29 17 13 0 12 3 -4 15 -18 15 -18 15 0 8 13 -4 17 -3 12 5
-3 6 -2 13 4 17 6 4 7 11 4 17 -4 6 -2 8 4 4 6 -3 13 -2 16 3 3 5 15 7 25 4
17 -4 18 -9 9 -29 -6 -13 -14 -21 -19 -19 -4 3 -10 1 -13 -4 -9 -13 19 -7 40
9 16 12 17 12 7 0 -15 -16 -17 -34 -5 -26 5 3 8 -7 7 -21 0 -15 -6 -28 -13
-31 -15 -5 -16 10 -1 25 8 8 8 13 0 17 -6 4 -11 6 -12 4 -9 -40 -7 -49 14 -58
22 -9 22 -9 -3 -11 -21 -1 -22 -2 -5 -6 17 -5 15 -7 -10 -18 -28 -13 -28 -14
-5 -12 17 1 25 -4 27 -18 l3 -20 -9 20 c-5 11 -10 17 -12 13 -5 -23 -7 -29 -8
-44 0 -8 -5 -13 -10 -10 -5 3 -15 -2 -22 -12 -13 -16 -13 -16 5 -2 18 14 18
13 11 -9 -4 -14 -3 -21 2 -18 5 4 10 0 10 -8 0 -8 -4 -12 -9 -9 -4 3 -8 -3 -8
-13 0 -15 -2 -16 -10 -3 -6 9 -10 10 -10 3 0 -6 5 -15 11 -18 6 -5 4 -12 -8
-22 -17 -13 -16 -13 4 -4 29 15 33 14 33 -6 0 -15 2 -16 10 -3 5 8 10 11 10 6
0 -6 5 -5 12 2 15 15 31 16 22 0 -4 -7 -3 -8 5 -4 16 10 4 25 -19 23 -10 -1
-16 -5 -14 -9 3 -5 -6 -3 -20 3 -14 7 -23 16 -19 22 3 5 9 4 13 -4 6 -9 12
-10 22 -1 8 6 19 7 28 2 8 -5 17 -7 21 -5 3 3 6 -5 5 -18 -1 -13 4 -21 12 -19
8 1 11 -2 7 -7 -3 -6 -13 -8 -23 -5 -15 5 -15 5 1 -6 9 -6 22 -8 27 -5 6 3 7
-1 4 -9 -3 -9 -9 -14 -13 -11 -4 2 -8 -2 -8 -10 0 -11 4 -12 13 -4 9 7 15 5
23 -8 8 -14 10 -15 11 -3 0 13 1 13 10 0 6 -9 10 -11 10 -3 0 7 7 10 18 7 13
-5 14 -4 3 4 -8 6 -22 9 -32 7 -10 -2 -21 0 -24 5 -3 4 3 7 12 5 10 -1 26 7
36 19 18 21 18 21 8 0 -7 -15 -7 -21 2 -21 7 0 13 12 12 26 0 16 -6 25 -14 23
-7 -1 -10 2 -6 7 3 6 13 7 22 4 15 -6 16 -5 3 9 -8 9 -19 13 -24 10 -5 -3 -6
0 -2 6 4 6 12 9 19 6 8 -3 13 4 14 17 2 16 -1 18 -12 9 -10 -8 -15 -8 -21 2
-4 7 -4 10 1 6 11 -10 38 29 30 43 -5 7 -12 6 -23 -3 -15 -12 -16 -11 -3 4 7
10 17 15 22 12 17 -10 9 19 -8 32 -17 13 -17 14 1 7 13 -4 17 -3 12 5 -4 6 2
20 14 32 23 23 25 31 9 27 -6 -1 -14 5 -16 13 -4 13 -3 13 6 0 10 -14 12 -11
11 15 -1 14 32 65 41 65 6 0 7 -6 3 -12 -5 -9 -2 -8 10 1 12 10 20 11 28 3 13
-13 1 -35 -14 -26 -7 4 -8 2 -4 -4 5 -9 13 -8 30 3 21 14 25 14 36 0 14 -17
45 -21 35 -5 -4 6 -9 8 -13 6 -4 -2 -12 2 -19 9 -10 10 -9 14 2 18 15 6 50
-39 36 -47 -16 -10 -10 -56 8 -56 14 0 14 2 1 10 -9 6 -10 10 -3 10 16 0 26
-17 13 -25 -16 -10 -12 -28 5 -21 8 3 15 1 15 -4 0 -6 -8 -10 -17 -10 -15 0
-14 -2 3 -16 10 -8 14 -13 7 -10 -6 4 -15 2 -18 -4 -4 -6 -3 -10 2 -9 22 4 33
-3 33 -21 0 -11 5 -20 11 -20 5 0 7 5 3 12 -5 7 -3 8 6 3 10 -6 9 -11 -5 -22
-26 -18 -4 -16 23 3 12 8 22 14 23 12 8 -32 6 -38 -6 -28 -19 16 -27 -4 -10
-26 13 -17 14 -17 9 -1 -5 12 -2 16 9 12 16 -7 32 21 17 30 -6 4 -10 11 -10
16 0 6 5 7 12 3 7 -4 8 -3 4 5 -4 6 -13 8 -19 4 -7 -4 -5 2 3 12 8 10 10 16 3
12 -6 -4 -15 -2 -19 4 -4 8 -3 9 4 5 7 -4 12 -2 12 4 0 6 6 8 13 5 6 -4 3 1
-7 9 -11 9 -14 16 -8 16 7 0 12 9 12 19 0 11 3 21 8 24 4 2 2 3 -5 1 -6 -1
-13 6 -16 17 -4 16 -2 18 7 9 10 -7 17 -6 27 7 11 15 11 16 -1 6 -10 -10 -16
-9 -26 4 -14 20 -8 43 11 43 19 0 38 27 25 35 -6 3 -8 10 -5 15 3 5 -3 11 -12
14 -15 4 -14 4 2 3 11 -1 26 2 33 6 6 5 12 4 12 -2 0 -5 -6 -11 -12 -14 -7 -2
-10 -7 -7 -11 4 -4 14 0 23 9 9 9 16 12 16 6 0 -5 -4 -13 -10 -16 -5 -3 -10
-11 -10 -18 0 -8 3 -8 12 1 7 7 17 12 22 12 6 0 4 -5 -4 -10 -11 -7 -11 -10
-2 -10 7 0 10 -4 7 -10 -3 -5 1 -10 9 -10 9 0 16 -8 16 -17 0 -16 -2 -16 -11
-3 -9 13 -10 13 -7 0 3 -8 15 -17 29 -20 17 -4 20 -8 11 -14 -11 -6 -9 -12 7
-27 22 -21 43 -27 23 -7 -7 7 -12 19 -12 28 0 9 6 5 14 -10 11 -21 10 -28 -3
-45 -10 -13 -11 -16 -1 -8 20 18 30 16 23 -4 -6 -16 -5 -17 12 -3 11 9 16 10
11 3 -4 -8 -2 -13 4 -13 7 0 10 -6 7 -12 -2 -7 0 -22 5 -33 8 -18 8 -18 4 3
-3 15 1 22 11 22 8 0 11 -4 8 -10 -3 -6 -2 -10 4 -10 6 0 7 -8 4 -17 -6 -15
-4 -16 9 -5 11 9 18 10 23 2 3 -5 -1 -13 -9 -16 -9 -3 -16 -11 -16 -17 0 -7 4
-7 12 1 17 17 31 15 24 -3 -3 -8 0 -15 5 -15 6 0 9 10 7 23 -3 15 0 24 9 24 8
0 11 -7 8 -17 -3 -10 2 -23 12 -31 15 -11 16 -11 6 1 -16 17 -17 34 -2 24 8
-5 8 -1 0 14 -8 15 -8 22 2 26 7 3 6 5 -3 3 -9 -1 -17 3 -18 8 -1 6 5 10 12
10 8 0 18 4 23 8 4 5 3 7 -2 5 -6 -2 -11 2 -13 7 -1 6 2 10 7 10 5 0 13 3 17
7 3 4 -3 6 -14 3 -12 -2 -25 1 -28 7 -4 7 -2 8 4 4 7 -4 12 -1 12 8 0 8 8 17
18 19 16 4 16 5 0 6 -10 0 -18 6 -18 12 0 5 4 8 9 5 5 -3 14 1 21 9 10 13 10
15 -1 12 -8 -2 -11 -2 -6 0 4 3 4 10 0 16 -5 8 -2 8 9 0 8 -7 18 -10 21 -6 4
3 -1 12 -11 20 -15 12 -14 13 8 1 14 -7 29 -11 34 -10 5 2 4 -4 -3 -12 -7 -9
-17 -14 -20 -11 -4 2 -8 -2 -8 -9 0 -8 6 -12 12 -9 7 2 15 -3 18 -11 4 -9 11
-16 17 -16 6 0 4 7 -4 16 -26 25 -18 30 8 5 14 -13 22 -29 19 -37 -3 -8 2 -17
11 -20 9 -3 16 -10 16 -16 0 -5 -4 -6 -10 -3 -5 3 -10 1 -10 -4 0 -15 13 -14
29 2 7 6 12 8 11 2 -4 -20 0 -45 8 -44 18 3 32 -2 32 -11 0 -5 -6 -8 -12 -6
-7 1 -10 1 -6 -1 4 -3 10 -4 14 -3 4 1 11 -4 16 -12 7 -10 8 -9 4 5 -6 20 9
23 17 3 3 -7 0 -20 -6 -27 -10 -11 -9 -11 5 0 10 7 15 17 13 22 -3 4 3 13 12
19 17 11 17 11 1 6 -10 -3 -18 -1 -18 4 0 6 9 10 21 10 11 0 17 5 14 10 -4 6
-12 7 -18 3 -8 -5 -8 -2 0 9 7 8 9 19 5 24 -4 4 0 3 9 -4 9 -6 18 -9 21 -6 3
2 8 -2 11 -10 4 -11 1 -13 -11 -9 -15 6 -15 5 -3 -10 8 -10 11 -30 9 -48 -5
-29 -4 -30 9 -14 7 11 16 15 21 9 4 -5 5 -8 3 -7 -5 3 -30 -29 -31 -38 0 -4 7
-10 16 -13 14 -5 15 -4 4 9 -7 8 -8 15 -2 15 13 0 23 -28 12 -35 -5 -3 -8 -14
-7 -25 1 -10 5 -16 9 -14 5 3 6 9 3 14 -3 5 -1 11 4 15 6 3 8 -6 5 -21 -3 -18
-1 -23 7 -18 8 4 9 3 5 -5 -4 -6 -11 -9 -16 -6 -10 6 0 -36 13 -52 6 -9 6 -13
-2 -13 -7 0 -9 -5 -5 -12 5 -7 3 -8 -6 -3 -9 6 -12 4 -8 -6 4 -11 -2 -14 -28
-14 -29 1 -32 -1 -21 -13 10 -13 9 -14 -10 -3 -13 6 -23 9 -23 6 0 -3 -8 -1
-18 4 -22 12 -43 -4 -35 -25 6 -17 -13 -19 -23 -2 -4 7 -3 8 4 4 8 -5 10 -1 5
9 -5 13 -7 14 -14 3 -5 -7 -17 -13 -28 -14 -14 -1 -18 4 -16 20 4 21 4 21 -10
2 -15 -20 -15 -20 -16 0 0 18 -1 18 -10 -1 -8 -18 -8 -17 -6 5 1 14 8 24 15
22 8 -1 11 2 6 9 -5 9 -13 5 -26 -10 -17 -23 -18 -23 -18 -3 0 12 -5 24 -12
28 -6 4 -8 3 -5 -3 4 -6 0 -14 -9 -17 -8 -3 -12 -2 -9 4 3 6 1 10 -5 10 -6 0
-8 5 -4 12 4 7 3 8 -4 4 -6 -4 -9 -14 -6 -24 4 -12 2 -11 -7 3 -18 29 -17 29
-35 14 -15 -12 -16 -11 -11 11 4 14 4 20 1 13 -3 -7 -13 -9 -22 -6 -15 4 -15
3 -2 -6 11 -8 6 -9 -23 -7 -21 2 -41 7 -45 12 -4 4 1 4 11 1 11 -4 16 -3 12 3
-3 6 -20 8 -36 5 -17 -3 -28 -2 -25 3 2 4 -5 9 -16 9 -20 2 -20 1 -2 -12 17
-12 14 -13 -26 -12 -30 0 -44 -3 -43 -11 4 -16 -29 -15 -46 0 -8 7 -5 0 5 -16
l18 -29 -24 13 c-22 12 -24 12 -12 -2 10 -13 10 -18 1 -24 -8 -4 -9 -3 -5 4 4
7 2 12 -3 12 -6 0 -11 -4 -11 -10 0 -5 -3 -9 -8 -7 -4 1 -7 -2 -7 -8 0 -5 9
-9 20 -7 16 2 17 0 5 -8 -8 -5 -24 -7 -35 -3 -18 5 -19 4 -5 -12 12 -15 12
-17 1 -10 -11 6 -13 4 -8 -7 4 -12 0 -14 -16 -10 -20 5 -20 4 -8 -11 14 -17
11 -20 -24 -18 -11 0 -14 -2 -7 -5 18 -8 15 -27 -4 -20 -14 5 -15 4 -5 -8 8
-10 9 -16 1 -21 -6 -3 -8 -10 -5 -15 3 -4 -2 -11 -11 -14 -15 -6 -15 -4 0 19
9 14 12 25 6 25 -5 0 -10 -5 -10 -11 0 -5 -5 -7 -12 -3 -7 4 -8 3 -4 -5 4 -6
2 -19 -6 -28 -9 -12 -9 -15 0 -9 6 4 12 2 12 -3 0 -11 -15 -15 -35 -11 -5 1
-1 -8 10 -20 16 -18 16 -20 2 -14 -17 6 -24 -3 -30 -41 -4 -28 -17 -46 -28
-40 -5 4 -9 -1 -9 -10 0 -9 -5 -13 -11 -9 -8 4 -9 0 -4 -15 4 -14 3 -21 -5
-19 -7 2 -15 -3 -18 -11 -2 -8 0 -11 6 -7 12 7 10 -13 -3 -34 -5 -8 -10 -18
-10 -22 0 -3 -14 -22 -30 -41 -17 -19 -29 -39 -27 -46 2 -6 -1 -11 -8 -11 -6
0 -9 -4 -5 -9 3 -5 1 -13 -5 -16 -6 -4 -9 -1 -8 6 2 6 -4 14 -12 16 -13 4 -13
3 0 -6 8 -6 11 -11 6 -11 -5 0 -3 -6 3 -14 9 -11 8 -15 -4 -20 -11 -4 -14 -2
-9 6 4 7 3 8 -4 4 -7 -4 -12 -14 -12 -22 0 -9 5 -12 12 -8 7 4 8 3 4 -5 -6 -9
-11 -9 -22 0 -12 10 -13 9 -8 -6 5 -13 4 -16 -4 -11 -8 5 -10 2 -6 -8 4 -11 0
-14 -16 -11 -17 3 -19 1 -11 -9 8 -10 7 -17 -4 -26 -12 -10 -13 -16 -3 -28 11
-13 10 -15 -4 -9 -10 3 -17 3 -17 -1 3 -20 -2 -25 -12 -12 -9 13 -10 13 -6 0
2 -9 13 -14 28 -13 l24 3 -25 -12 c-14 -6 -29 -10 -35 -9 -5 1 -5 -3 2 -10 9
-9 9 -19 -3 -41 -9 -17 -18 -27 -21 -24 -3 3 0 12 7 21 8 10 9 15 1 15 -6 0
-13 -11 -17 -25 -3 -14 -9 -23 -13 -21 -4 3 -8 -5 -8 -16 -2 -19 -1 -19 11 -3
10 14 15 15 21 5 5 -9 4 -11 -3 -6 -11 6 -16 -5 -14 -25 1 -4 -9 -5 -21 -2
-18 4 -19 3 -7 -6 13 -9 13 -11 -3 -11 -9 0 -16 -3 -15 -8 2 -4 -7 -20 -19
-36 -13 -16 -23 -24 -23 -19 0 5 6 15 13 23 10 12 9 12 -4 2 -9 -6 -19 -9 -23
-5 -4 4 -3 -5 3 -19 7 -19 7 -29 -1 -34 -7 -5 -8 -2 -4 7 4 8 0 5 -8 -5 -12
-14 -13 -23 -5 -33 9 -10 7 -13 -6 -13 -10 0 -15 -3 -12 -7 4 -3 1 -13 -6 -21
-6 -9 -7 -13 -2 -10 14 8 38 -19 25 -27 -6 -4 -7 -11 -4 -17 4 -6 3 -9 -2 -6
-13 7 -41 -26 -38 -46 2 -14 0 -15 -13 -5 -12 10 -16 10 -23 -1 -5 -8 -7 -17
-4 -21 2 -4 0 -10 -6 -14 -5 -3 -10 -12 -10 -18 0 -7 7 -3 15 7 13 17 17 18
28 6 7 -7 7 -10 1 -7 -7 4 -17 0 -24 -8 -7 -8 -19 -15 -26 -15 -8 0 -14 -5
-14 -11 0 -5 4 -8 9 -5 5 4 8 0 7 -6 -3 -24 -18 -39 -33 -34 -8 3 -11 1 -8 -4
9 -14 -8 -12 -25 2 -8 7 -7 4 3 -8 19 -23 23 -39 7 -29 -6 4 -7 -1 -3 -11 4
-11 3 -15 -5 -10 -6 3 -13 2 -16 -3 -4 -5 -1 -13 5 -17 8 -5 9 -3 4 6 -6 9 -4
11 4 6 12 -8 7 -21 -7 -21 -18 -1 -31 -17 -25 -32 5 -12 3 -14 -8 -8 -8 4 -11
5 -7 0 4 -4 2 -15 -4 -23 -7 -8 -13 -21 -14 -29 -4 -28 -14 -44 -23 -38 -6 3
-8 -3 -6 -14 2 -11 -3 -25 -11 -31 -7 -7 -12 -16 -9 -20 3 -5 1 -11 -5 -15 -6
-4 -8 -11 -5 -16 4 -5 2 -9 -3 -9 -6 0 -13 -8 -17 -17 -5 -14 -3 -15 6 -6 13
13 39 7 39 -10 0 -8 -3 -8 -11 0 -9 9 -15 8 -26 -3 -8 -8 -18 -12 -23 -9 -5 3
-7 -3 -5 -12 1 -10 -2 -23 -7 -30 -6 -7 -5 -14 3 -19 7 -4 9 -3 5 4 -3 6 -2
13 4 17 6 4 8 10 5 15 -3 5 -1 11 4 14 7 5 8 -22 1 -31 -2 -2 -3 -6 -5 -10 -9
-33 -18 -44 -26 -31 -11 18 -28 -1 -31 -34 -1 -15 -6 -24 -11 -21 -5 3 -6 12
-3 20 4 8 1 11 -5 8 -6 -4 -8 -13 -5 -21 3 -8 -7 -26 -22 -41 -15 -14 -19 -21
-9 -14 10 9 17 9 17 3 0 -6 -4 -13 -9 -16 -5 -3 -7 -15 -4 -26 4 -14 1 -20 -7
-18 -17 4 -22 -33 -7 -51 10 -12 9 -13 -11 -2 -13 7 -26 10 -30 7 -3 -3 0 -6
6 -6 7 0 12 -7 12 -15 0 -8 -5 -15 -11 -15 -5 0 -7 5 -3 12 4 7 3 8 -5 4 -9
-6 -9 -11 -1 -21 8 -9 6 -14 -5 -19 -11 -4 -14 -2 -9 6 4 7 3 8 -4 4 -7 -4
-12 -2 -12 5 0 7 -3 10 -6 7 -3 -4 -1 -16 6 -27 9 -17 8 -22 -5 -28 -13 -5
-14 -7 -3 -14 9 -6 9 -9 1 -9 -7 0 -17 8 -22 17 -8 14 -9 12 -7 -13 4 -27 1
-31 -19 -29 -15 2 -22 -2 -22 -14 0 -34 -4 -40 -22 -36 -11 2 -26 -4 -33 -13
-12 -15 -11 -16 5 -3 10 8 17 9 17 3 0 -6 8 -9 17 -6 15 5 15 4 3 -4 -8 -6
-18 -8 -22 -6 -4 3 -8 0 -8 -6 0 -7 -6 -10 -14 -7 -7 3 -26 -8 -42 -24 -26
-27 -27 -32 -15 -52 13 -20 13 -21 -3 -8 -15 13 -18 12 -23 -8 -4 -16 -8 -19
-14 -10 -6 10 -12 9 -28 -5 -11 -10 -18 -23 -14 -29 3 -5 -3 -17 -13 -25 -18
-13 -18 -14 4 -7 21 6 21 5 11 -19 -7 -14 -18 -26 -26 -26 -7 0 -13 -5 -13
-11 0 -5 5 -7 12 -3 7 4 8 3 4 -5 -4 -6 -11 -9 -16 -6 -4 3 -13 -2 -20 -10 -7
-8 -17 -12 -23 -8 -6 3 -7 1 -3 -6 4 -7 -2 -15 -16 -20 -13 -6 -17 -10 -9 -10
8 -1 23 7 33 16 18 16 58 30 43 15 -4 -4 -12 -7 -18 -7 -7 0 -11 -8 -11 -18 1
-9 -2 -15 -6 -12 -12 7 -41 -6 -35 -15 3 -5 -6 -7 -19 -6 -16 2 -23 -1 -19
-10 2 -7 12 -10 21 -7 14 4 15 3 2 -5 -10 -8 -18 -8 -27 0 -10 8 -12 7 -7 -5
6 -17 -28 -41 -41 -29 -4 4 -2 -4 5 -18 12 -23 12 -24 -4 -11 -9 8 -16 10 -15
5 5 -26 -2 -46 -15 -41 -10 4 -12 0 -9 -14 4 -15 2 -18 -13 -13 -15 5 -16 4
-5 -4 8 -6 21 -8 30 -5 13 4 14 3 2 -5 -8 -6 -16 -19 -17 -29 -2 -9 -8 -19
-14 -21 -5 -2 -8 -8 -4 -13 3 -5 0 -9 -5 -9 -6 0 -11 5 -11 10 0 6 -5 10 -12
10 -6 0 -1 -11 12 -25 13 -14 20 -28 17 -32 -4 -3 -7 -2 -7 4 0 6 -7 14 -16
17 -14 5 -14 4 -5 -7 6 -8 9 -33 7 -56 -2 -23 0 -44 5 -47 5 -3 6 -11 2 -17
-5 -8 -2 -8 9 1 13 10 18 9 29 -5 13 -17 13 -17 -6 -3 -19 14 -19 14 -6 -3 13
-16 16 -16 37 -2 16 10 25 11 30 4 3 -6 17 -9 30 -6 14 2 27 0 31 -6 3 -5 1
-7 -5 -3 -6 3 -13 2 -16 -3 -4 -5 2 -8 11 -6 10 1 17 8 15 15 -1 6 3 10 10 7
7 -2 11 -11 10 -18 -2 -8 0 -10 4 -6 12 11 14 37 3 37 -5 0 -9 5 -9 10 0 6 8
5 19 -2 11 -7 18 -15 16 -18 -2 -4 2 -7 10 -7 10 0 11 5 5 18 -11 20 14 36 26
17 4 -7 3 -8 -4 -4 -7 4 -12 2 -12 -3 0 -19 22 -12 27 9 3 11 9 17 14 14 5 -3
6 -11 2 -17 -5 -8 -2 -8 9 1 9 7 23 9 34 5 16 -6 17 -5 4 9 -12 12 -18 13 -30
4 -13 -10 -13 -9 -1 7 8 9 16 15 19 12 3 -3 12 1 21 8 14 10 14 10 3 -5 -12
-15 -11 -17 6 -15 14 1 18 7 15 22 -4 17 -2 17 10 -4 9 -15 17 -20 21 -12 4 6
3 11 -2 11 -5 0 -9 7 -9 15 0 13 4 12 20 -2 11 -10 17 -13 14 -7 -4 7 2 14 14
17 12 3 18 10 14 17 -3 6 -3 10 2 9 4 -1 11 0 16 1 4 1 13 3 20 4 6 1 11 8 9
15 -1 7 2 10 8 6 6 -3 8 -10 6 -14 -3 -4 1 -8 9 -8 8 0 12 5 8 10 -3 5 4 6 18
2 24 -7 24 -7 4 10 -11 9 -15 14 -8 11 6 -4 14 -2 18 4 3 5 12 10 18 10 7 0 6
-4 -3 -10 -8 -5 -10 -10 -5 -10 14 1 46 26 40 32 -3 3 5 5 17 5 53 1 60 3 55
18 -5 11 -1 12 19 5 18 -7 23 -7 18 1 -5 8 1 10 19 7 18 -4 24 -1 20 9 -3 7
-10 10 -17 6 -6 -3 -7 -2 -3 2 11 13 60 18 53 6 -4 -5 -2 -13 4 -16 6 -4 9 -1
8 7 -2 7 5 12 15 12 10 -1 16 0 13 4 -3 3 2 11 12 19 9 8 11 11 3 7 -10 -5
-12 -3 -7 5 6 9 11 9 22 0 7 -6 11 -16 7 -22 -3 -6 -1 -7 5 -3 9 5 9 13 2 26
-7 13 -7 21 2 26 6 4 8 3 5 -3 -4 -6 1 -17 10 -24 12 -10 14 -10 9 -1 -4 7 -2
12 4 12 6 0 9 4 6 8 -3 5 1 9 9 9 8 0 12 -4 9 -9 -3 -4 0 -8 5 -8 6 0 11 7 11
16 0 8 4 13 9 9 5 -3 19 8 31 25 12 16 18 30 13 30 -4 0 1 8 12 17 16 13 17
15 3 10 -10 -4 -18 -2 -18 4 0 6 -6 7 -12 3 -10 -6 -10 -5 -1 7 18 23 19 25 4
43 -11 13 -11 16 -1 14 7 -2 15 3 18 11 3 10 0 12 -11 8 -12 -4 -14 -2 -10 10
5 12 3 14 -8 8 -11 -6 -12 -5 -1 6 6 7 12 19 12 27 0 12 -3 12 -15 2 -13 -11
-14 -10 -9 4 3 9 10 16 16 16 5 0 2 7 -6 16 -9 8 -14 19 -11 24 3 5 -1 11 -7
14 -7 3 -2 4 12 1 14 -3 19 -2 12 1 -19 9 -34 42 -22 49 6 4 9 1 8 -6 -2 -6 4
-14 12 -16 9 -3 11 -1 5 4 -16 13 -19 47 -3 37 10 -6 10 -4 -1 9 -9 11 -10 17
-2 17 6 0 11 5 11 11 0 5 -4 7 -10 4 -13 -8 -13 11 1 37 8 15 8 19 0 14 -7 -5
-10 1 -8 16 3 19 10 23 35 22 17 0 29 3 26 8 -3 5 -10 6 -15 3 -5 -4 -9 1 -9
10 0 10 6 15 13 12 8 -3 14 3 14 15 2 17 0 18 -15 6 -15 -11 -15 -11 -5 3 7 9
9 19 5 24 -4 4 4 2 18 -5 22 -12 24 -11 13 2 -7 8 -9 19 -5 23 4 5 3 6 -3 3
-5 -3 -17 1 -25 10 -13 14 -12 15 3 9 22 -8 22 2 0 20 -10 8 -12 12 -5 8 16
-8 16 7 0 25 -11 12 -10 12 5 1 15 -12 17 -11 17 8 0 11 5 22 10 22 6 1 13 2
18 3 4 0 15 8 23 16 15 13 15 16 0 28 -9 7 -11 11 -4 7 7 -3 17 4 23 15 6 11
16 18 21 14 7 -4 6 2 -1 16 -6 12 -9 24 -6 28 3 3 6 0 6 -6 0 -7 5 -12 11 -12
6 0 8 7 5 16 -3 8 -2 12 4 9 11 -7 29 25 23 42 -2 6 5 14 16 18 11 3 23 15 26
26 5 15 10 17 20 9 11 -9 12 -7 8 11 -5 17 -3 20 8 14 11 -7 11 -5 -1 10 -14
17 -13 18 4 12 15 -6 17 -5 8 6 -12 14 -6 27 12 27 6 0 4 -5 -4 -10 -9 -6 -10
-10 -3 -10 7 0 17 9 23 20 6 11 15 18 20 15 4 -3 6 5 2 17 -4 15 -2 19 7 13
10 -5 11 -2 6 14 -7 22 9 30 19 9 4 -7 4 -3 2 9 -2 13 1 26 6 30 6 3 8 1 4 -5
-3 -6 -1 -14 5 -18 7 -4 9 -3 5 4 -3 6 2 15 11 21 16 9 15 10 -7 9 -14 -1 -32
-6 -40 -12 -13 -10 -13 -9 -1 7 7 9 19 16 25 15 6 -1 21 2 33 6 20 6 21 10 11
29 -10 21 -10 21 7 7 17 -14 18 -14 6 8 -7 13 -10 26 -7 30 3 3 6 0 6 -5 0
-10 7 -10 39 -4 2 1 -2 8 -9 16 -10 13 -11 18 -1 28 10 9 11 8 6 -5 -6 -15 -2
-18 18 -16 14 1 24 5 21 9 -2 4 0 11 6 14 8 5 7 12 -2 23 -11 14 -11 14 6 5
14 -8 25 -8 37 0 16 10 16 12 1 23 -14 10 -15 15 -4 26 11 11 12 10 9 -2 -2
-8 -2 -12 0 -7 3 4 8 5 13 2 4 -3 6 4 3 15 -3 11 -9 17 -14 14 -5 -3 -9 0 -9
6 0 6 11 8 24 6 18 -3 23 -1 19 10 -3 8 -8 12 -12 9 -4 -2 -8 2 -8 10 0 8 4
12 8 9 4 -2 10 2 12 8 3 8 6 6 6 -5 1 -10 6 -15 11 -12 7 4 6 14 -2 28 -11 21
-10 21 7 7 17 -14 18 -13 13 8 -4 13 -2 20 3 16 6 -3 16 0 24 6 8 7 15 9 15 4
0 -5 5 -2 11 6 9 13 10 13 6 0 -2 -8 -10 -15 -18 -15 -7 0 -15 -9 -16 -20 -2
-15 -1 -16 5 -5 4 8 21 17 37 19 17 1 33 8 37 15 7 10 13 -5 9 -26 0 -5 7 -8
17 -8 14 0 15 -2 2 -10 -8 -5 -10 -10 -4 -10 5 0 16 6 23 13 11 10 12 9 6 -2
-6 -11 -2 -13 18 -9 15 3 24 2 21 -3 -2 -4 4 -12 13 -18 10 -6 13 -11 6 -11
-6 0 -15 4 -18 10 -3 5 -12 10 -18 9 -9 0 -8 -2 1 -6 6 -2 9 -10 5 -16 -3 -7
-3 -9 1 -5 5 4 18 3 31 -2 12 -5 26 -5 31 -2 5 4 6 3 2 -3 -13 -15 -9 -28 7
-22 8 4 17 2 20 -4 4 -5 10 -7 14 -5 4 3 8 -5 8 -17 2 -17 0 -19 -7 -7 -5 8
-10 11 -10 5 0 -5 4 -16 9 -23 7 -11 9 -10 15 3 5 15 7 15 22 1 8 -9 19 -14
24 -11 5 3 11 1 15 -4 6 -11 -27 -7 -47 5 -6 4 -8 3 -4 -4 3 -5 0 -13 -6 -16
-7 -2 -2 -4 12 -3 17 1 24 -3 22 -12 -3 -12 0 -12 13 -1 8 7 18 10 22 6 3 -3
1 -6 -5 -6 -17 0 -15 -17 4 -24 8 -3 12 -2 9 3 -3 5 0 13 6 17 8 4 9 3 5 -4
-6 -11 5 -16 26 -13 4 0 4 -7 1 -16 -5 -12 -3 -14 8 -8 11 6 12 5 2 -6 -16
-16 -17 -29 -2 -29 5 0 8 4 5 9 -3 5 1 11 9 14 9 4 12 1 8 -9 -4 -10 0 -12 13
-7 16 6 17 5 6 -9 -10 -13 -10 -18 -1 -24 7 -4 9 -3 6 3 -4 6 3 13 14 16 16 4
19 2 15 -11 -5 -14 -4 -14 8 1 9 12 16 14 21 8 3 -6 1 -11 -4 -11 -6 0 -11 -4
-11 -9 0 -5 11 -8 25 -8 14 0 22 4 18 10 -3 6 -1 7 6 3 9 -6 9 -11 0 -22 -15
-19 -4 -18 14 1 13 13 16 13 21 -1 3 -8 2 -12 -3 -9 -5 3 -13 0 -17 -7 -4 -7
-4 -10 1 -6 4 4 17 3 28 -3 10 -6 17 -7 14 -2 -4 7 42 10 51 3 3 -3 19 -7 33
-9 6 0 8 -9 5 -19 -5 -14 -4 -14 9 2 8 11 15 15 15 9 0 -6 12 -13 27 -16 l28
-5 -24 19 c-13 10 -18 19 -13 19 6 0 14 -5 17 -10 4 -6 11 -8 16 -5 5 4 9 0 9
-7 0 -9 16 -13 54 -13 30 0 52 3 49 8 -2 4 -9 4 -15 1 -7 -4 -8 -2 -4 4 4 7 2
12 -5 12 -7 0 -10 3 -7 6 4 3 19 -3 35 -13 26 -16 27 -16 14 0 -12 15 -12 17
3 11 9 -3 16 -9 16 -13 0 -4 7 -8 15 -8 10 0 12 4 5 12 -8 9 -4 11 15 7 14 -2
33 2 42 9 9 8 14 9 10 3 -4 -7 6 -10 27 -10 23 1 32 5 29 14 -3 7 -2 12 3 11
5 -1 11 -1 14 1 19 7 80 6 80 -2 0 -5 4 -7 9 -4 5 4 12 0 14 -6 4 -10 6 -10 6
0 1 6 6 12 12 12 5 0 7 -6 3 -12 -5 -10 -3 -10 7 0 12 11 12 14 -1 22 -9 6
-10 10 -3 10 7 0 17 -8 22 -17 10 -17 10 -16 11 2 0 11 3 16 8 10 6 -9 26 -12
35 -5 8 6 36 7 32 0 -3 -5 -1 -11 5 -15 6 -4 8 -11 5 -16 -10 -15 2 -10 16 8
10 11 10 14 2 9 -7 -4 -13 -2 -13 3 0 20 29 11 35 -10 7 -20 8 -20 26 7 10 16
19 24 19 18 0 -12 29 -12 47 -1 12 7 37 -25 28 -35 -3 -3 2 -5 10 -5 8 0 12 4
9 9 -3 4 0 8 6 8 6 0 8 5 4 12 -4 6 -3 8 4 4 6 -3 9 -15 7 -26 -3 -14 1 -17
12 -13 11 4 14 2 9 -5 -10 -17 -1 -15 14 4 11 12 11 15 0 12 -8 -2 -15 4 -15
12 -1 8 0 10 2 3 2 -6 15 -9 30 -7 23 4 24 3 9 -11 -20 -20 -20 -22 -1 -22 8
0 12 4 10 8 -3 3 4 9 15 12 12 3 24 -1 31 -11 8 -14 9 -13 4 6 -4 13 -2 22 4
22 6 0 10 -3 10 -7 -3 -19 2 -31 16 -37 12 -4 13 -2 6 12 -8 15 -5 17 17 16
14 0 28 -6 30 -12 2 -7 8 -10 12 -7 5 3 12 0 16 -6 4 -8 3 -9 -4 -5 -16 10
-15 -7 1 -23 9 -11 10 -13 0 -7 -8 5 -13 1 -13 -9 0 -9 5 -13 11 -9 6 3 3 -6
-6 -22 -16 -28 -16 -28 0 -9 17 20 17 20 12 -2 -3 -13 0 -26 5 -30 7 -3 8 -1
4 5 -4 7 -2 12 3 12 6 0 11 -7 11 -16 0 -8 5 -12 10 -9 10 6 13 -3 13 -38 0
-10 2 -15 5 -12 3 2 12 -1 21 -7 11 -9 10 -6 -2 9 -12 14 -15 23 -7 28 6 4 9
1 8 -7 -2 -7 2 -12 8 -11 7 1 10 -10 9 -27 -1 -17 0 -30 4 -30 3 0 12 -9 19
-20 13 -21 12 -21 -15 -3 -22 14 -25 14 -16 2 7 -9 9 -20 5 -24 -4 -5 -1 -5 7
0 10 6 12 2 6 -14 -4 -14 -3 -21 5 -19 7 2 15 -4 17 -12 3 -12 2 -12 -5 -2 -7
10 -12 9 -23 -4 -8 -10 -9 -15 -3 -11 18 11 40 -21 25 -36 -10 -9 -11 -8 -6 6
4 9 3 17 -3 17 -16 0 -24 -18 -12 -25 12 -8 53 -84 45 -86 -3 -1 -9 -2 -14 -3
-5 0 -13 -5 -18 -10 -4 -5 -3 -6 3 -3 26 15 40 -49 19 -83 -6 -10 -4 -12 10
-6 18 6 18 6 2 -12 -19 -21 -22 -32 -6 -32 5 0 7 5 3 12 -4 6 -3 8 3 5 6 -4 8
-18 6 -32 -3 -13 -9 -23 -12 -20 -4 2 -8 -2 -8 -10 0 -8 3 -12 7 -10 3 2 12 0
19 -5 11 -6 11 -12 -2 -30 -15 -22 -13 -55 3 -45 5 3 12 0 16 -6 4 -7 3 -9 -4
-5 -6 3 -13 2 -17 -4 -3 -5 -2 -10 2 -10 5 0 14 -9 21 -21 10 -16 10 -19 1
-13 -9 5 -10 2 -6 -9 4 -10 1 -17 -5 -17 -8 0 -6 -6 4 -16 14 -14 14 -19 2
-43 -12 -23 -12 -28 2 -38 14 -10 13 -12 -3 -16 -16 -4 -16 -5 2 -6 17 -1 18
-3 5 -11 -13 -8 -12 -10 5 -11 11 -1 25 -1 30 0 6 1 -1 -8 -14 -19 -18 -15
-19 -20 -7 -20 9 0 16 -4 16 -10 0 -19 2 -25 12 -38 7 -8 7 -12 -2 -12 -9 0
-9 -4 1 -17 13 -16 12 -16 -16 0 l-30 18 28 -26 c22 -19 26 -29 18 -39 -8 -9
-7 -13 4 -13 8 0 12 4 9 9 -3 4 0 8 5 8 6 0 12 -4 12 -10 1 -5 2 -14 3 -19 0
-5 4 -13 8 -17 4 -3 6 3 3 14 -2 12 1 25 7 28 7 4 8 2 4 -4 -4 -7 -3 -12 3
-12 6 0 8 -8 4 -17 -5 -15 -3 -14 10 2 9 11 17 16 17 10 0 -5 5 -3 11 5 9 13
10 13 6 0 -2 -8 -10 -14 -16 -12 -16 3 -14 -3 6 -19 14 -12 16 -12 8 0 -6 11
-4 13 9 8 14 -6 17 -3 12 10 -6 16 -6 16 12 0 10 -9 22 -14 25 -11 4 4 13 1
21 -5 12 -10 14 -9 12 3 -1 9 -6 19 -11 23 -4 4 -5 2 0 -6 5 -10 4 -12 -4 -7
-19 12 -2 27 18 16 12 -6 22 -5 29 2 14 14 42 19 42 8 0 -5 -5 -12 -10 -15 -6
-3 -10 -1 -10 5 0 6 -4 8 -10 5 -5 -3 -10 -14 -10 -23 0 -15 2 -15 10 -2 5 8
10 11 10 6 0 -5 9 -1 20 9 11 10 17 22 14 27 -4 6 4 5 16 -2 20 -11 22 -10 16
5 -6 16 -4 16 11 4 15 -12 16 -12 10 4 -4 11 -1 17 9 17 8 0 12 4 9 10 -4 6 1
7 12 3 16 -6 16 -4 -2 18 l-20 24 20 -15 c11 -8 23 -19 27 -25 4 -5 6 0 5 12
0 12 -4 20 -8 17 -4 -2 -11 1 -15 7 -4 8 -3 9 5 5 6 -4 14 0 17 8 8 22 25 20
18 -1 -5 -15 -4 -15 4 -3 6 8 9 17 6 21 -2 4 0 11 6 14 8 5 7 12 -2 23 -7 9
-8 13 -3 10 6 -3 18 4 27 16 13 18 13 23 3 23 -8 0 -11 -5 -8 -10 4 -6 1 -7
-7 -2 -10 6 -10 10 3 19 12 9 13 16 4 31 -10 20 -10 19 13 0 l23 -20 -13 22
c-12 18 -12 24 1 39 9 11 9 15 2 10 -19 -11 -16 5 5 21 16 14 16 14 0 9 -21
-6 -22 -2 -8 24 8 15 6 21 -7 29 -17 10 -17 10 0 11 10 0 15 5 12 10 -4 6 -11
7 -17 4 -6 -4 -8 -2 -4 4 3 5 3 12 -1 15 -5 2 -2 2 5 1 17 -5 15 13 -3 20 -8
3 -12 12 -9 21 3 8 1 15 -5 15 -6 0 -11 4 -11 10 0 5 8 7 18 4 9 -4 4 5 -13
19 -30 26 -30 26 -5 21 22 -4 22 -3 -5 10 -20 10 -24 15 -12 16 9 0 17 5 17
11 0 6 -7 8 -16 5 -8 -3 -12 -2 -9 3 3 5 1 12 -4 16 -6 3 -8 12 -5 20 4 8 9
13 13 10 4 -2 7 6 6 17 -1 12 -10 25 -21 29 -17 6 -17 7 -2 14 14 5 15 10 6
25 -7 10 -15 17 -19 14 -4 -2 -13 4 -20 14 -13 16 -13 16 5 2 18 -14 19 -13
13 4 -5 12 -3 23 5 29 10 6 9 7 -4 4 -9 -3 -19 1 -22 9 -3 9 -1 12 4 9 17 -10
11 7 -7 22 -17 14 -17 14 0 9 9 -3 17 -1 17 4 0 6 -4 10 -10 10 -5 0 -10 11
-10 25 0 14 6 25 13 25 9 0 8 3 -2 9 -8 5 -10 14 -5 22 6 11 3 11 -12 -1 -10
-8 -16 -10 -11 -5 4 4 1 15 -7 24 -15 17 -16 19 -16 51 0 14 -7 20 -21 20 -16
0 -19 4 -14 23 5 19 5 20 -5 4 -9 -14 -15 -15 -25 -7 -8 6 -11 18 -8 26 3 8 0
14 -7 14 -6 0 -8 4 -5 10 3 5 1 10 -5 10 -14 0 -40 26 -35 34 3 3 -1 2 -7 -4
-18 -15 -32 -12 -19 4 8 10 9 16 1 21 -6 3 -7 11 -4 17 4 7 2 8 -5 4 -8 -6 -9
-12 -2 -20 8 -9 7 -13 -4 -13 -8 0 -12 4 -9 8 2 4 -2 10 -8 12 -10 4 -10 6 1
6 11 1 10 6 -3 25 -10 15 -12 27 -6 31 15 9 12 27 -2 19 -9 -5 -10 -4 -3 4 6
6 21 13 33 15 13 2 34 15 48 30 23 25 52 38 39 18 -3 -5 -1 -12 4 -15 5 -4 8
5 6 19 -1 16 4 29 14 34 21 11 43 3 35 -12 -4 -7 -1 -7 7 1 12 11 12 14 -1 22
-11 7 -11 10 -2 10 8 0 10 5 6 13 -4 6 3 3 17 -8 13 -11 20 -16 16 -10 -4 5 3
15 15 22 l23 14 -22 -6 c-14 -4 -23 -2 -23 4 0 10 15 15 23 9 1 -2 17 12 35
30 18 18 37 30 43 26 7 -4 10 -1 7 7 -3 8 -11 13 -17 11 -7 -1 -9 2 -6 8 5 8
12 6 24 -4 15 -14 17 -13 18 5 1 12 -3 17 -9 13 -7 -4 -8 -2 -4 5 6 8 12 9 20
2 18 -15 28 -1 13 17 -10 13 -9 14 10 3 20 -10 23 -9 29 14 4 15 11 22 18 18
6 -3 2 4 -9 18 -11 13 -13 18 -5 12 19 -17 33 -16 27 1 -4 10 -1 13 8 9 8 -3
13 -9 10 -13 -7 -11 22 -6 32 5 4 4 3 5 -3 2 -7 -4 -17 0 -24 8 -10 12 -8 13
10 10 19 -4 20 -2 8 12 -9 12 -9 15 0 9 6 -4 12 -2 12 3 0 12 22 10 31 -2 3
-5 9 -1 12 8 4 9 3 13 -3 10 -6 -3 -10 -2 -10 3 0 17 13 22 28 9 13 -10 14 -9
4 9 -14 26 -6 37 18 24 15 -8 17 -6 13 8 -2 10 4 25 13 33 11 9 15 9 10 2 -4
-8 -2 -13 5 -13 6 0 9 8 6 20 -6 24 -3 25 17 4 14 -14 15 -12 10 14 -6 30 9
51 22 31 4 -8 3 -9 -4 -5 -7 4 -12 2 -12 -3 0 -6 4 -11 8 -11 17 0 21 13 11
32 -10 19 -10 19 18 3 17 -11 21 -12 11 -2 -19 15 -25 33 -9 22 5 -3 13 0 18
7 11 19 13 39 2 32 -5 -3 -6 -11 -3 -17 4 -7 3 -8 -1 -4 -19 16 -13 35 10 32
l23 -2 -19 34 c-11 19 -15 32 -9 28 5 -3 10 0 10 7 0 7 6 25 14 40 12 24 12
26 -1 21 -11 -4 -14 -2 -11 8 7 18 -10 51 -22 44 -6 -3 -7 1 -4 9 3 9 10 16
16 16 5 0 6 -5 2 -12 -4 -7 -3 -8 4 -4 17 10 15 26 -3 26 -8 0 -15 5 -15 11 0
5 -5 7 -12 3 -6 -4 -8 -3 -4 4 3 6 16 9 28 7 11 -3 17 -1 14 3 -4 4 -12 8 -17
8 -5 1 -13 2 -19 3 -5 0 -7 8 -4 16 4 8 11 12 18 8 6 -3 7 -2 3 3 -8 9 -12 10
-38 13 -8 1 -8 6 1 16 14 17 0 21 -16 5 -7 -7 -10 0 -9 24 0 28 -2 33 -13 24
-7 -6 -12 -7 -11 -2 4 22 -2 33 -22 39 -17 6 -18 9 -7 23 11 13 11 15 -4 9
-12 -4 -15 -2 -12 7 3 8 0 17 -6 21 -9 6 -9 10 1 17 10 6 7 7 -8 3 -14 -4 -23
-2 -23 5 0 6 -4 9 -8 6 -4 -2 -9 4 -10 15 -4 45 -6 50 -18 45 -9 -3 -11 1 -7
11 5 12 3 14 -7 8 -10 -6 -11 -4 -4 6 10 16 15 44 7 35 -10 -10 -44 15 -37 26
5 8 1 9 -10 5 -13 -5 -15 -2 -12 18 3 14 0 25 -5 25 -5 0 -10 -4 -10 -10 -1
-5 -2 -14 -3 -19 0 -5 -5 -13 -10 -18 -5 -4 -7 -3 -3 3 7 13 -27 67 -36 57 -4
-3 -7 1 -7 9 0 14 -20 29 -42 32 -3 1 -10 5 -15 10 -5 5 -3 6 5 2 7 -4 12 -1
12 8 0 9 -6 15 -12 13 -7 -1 -12 5 -12 14 1 11 -5 15 -17 12 -11 -3 -19 0 -19
6 0 7 5 9 10 6 16 -10 11 1 -7 16 -11 10 -14 10 -9 2 4 -7 2 -13 -3 -13 -6 0
-11 7 -11 16 0 10 -6 14 -14 11 -10 -4 -12 1 -9 16 4 18 3 19 -6 7 -9 -13 -11
-13 -11 2 0 9 6 19 13 22 6 3 2 3 -10 0 -19 -4 -23 -1 -23 17 0 18 -3 20 -12
11 -7 -7 -17 -12 -22 -12 -6 0 -4 4 4 10 8 5 11 12 7 16 -3 4 -14 1 -24 -7 -9
-8 -14 -9 -10 -3 4 6 -2 22 -13 34 -12 14 -18 31 -14 42 3 10 0 18 -6 18 -6 0
-8 -5 -5 -10 3 -6 2 -10 -4 -10 -5 0 -11 5 -13 11 -2 5 -12 11 -23 13 -12 2
-19 10 -17 19 2 12 -2 15 -15 10 -16 -6 -17 -5 -3 12 9 11 10 16 3 11 -7 -4
-13 -2 -13 3 0 6 -5 11 -11 11 -5 0 -7 -5 -3 -12 4 -6 -4 -3 -18 8 -20 15 -24
23 -17 37 6 9 6 17 2 16 -29 -5 -35 2 -30 36 3 20 2 33 -3 30 -5 -3 -12 0 -16
6 -4 8 -3 9 4 5 11 -7 17 6 13 27 -1 5 3 6 9 2 6 -3 7 -11 4 -17 -4 -7 -2 -8
4 -4 9 5 9 13 2 26 -7 13 -7 21 0 25 6 4 7 12 4 18 -4 7 -4 9 1 5 4 -4 14 -1
21 7 8 7 19 15 26 18 10 4 10 7 -1 18 -8 9 -11 9 -7 2 5 -9 2 -11 -10 -6 -15
5 -15 7 0 15 9 5 14 13 11 19 -4 5 4 9 17 9 l23 1 -25 15 c-14 9 -17 13 -6 10
14 -5 17 -2 12 9 -3 9 -2 13 4 10 6 -3 10 0 10 9 0 8 3 16 8 19 4 2 1 2 -5 1
-19 -5 -16 13 3 20 13 5 14 9 4 21 -7 8 -9 15 -4 15 5 0 2 5 -6 10 -11 7 -11
10 -2 10 7 0 12 6 11 13 -4 21 12 46 26 41 10 -4 11 2 5 30 -4 21 -4 34 1 30
5 -3 9 1 9 8 0 10 2 11 8 0 5 -7 17 -10 28 -6 14 4 15 3 6 -4 -11 -7 -11 -10
2 -15 8 -3 17 -2 20 4 2 5 3 4 2 -3 -4 -18 -38 -16 -54 2 -11 13 -11 11 -2 -8
6 -12 15 -20 20 -17 6 3 18 1 27 -4 10 -6 14 -11 9 -11 -6 0 -1 -7 10 -15 19
-14 19 -14 -1 -15 l-20 -1 20 -8 c12 -5 23 -4 28 3 6 7 7 4 3 -6 -3 -11 2 -21
12 -27 9 -5 13 -13 8 -18 -5 -4 -11 -2 -13 5 -3 7 -14 17 -26 23 -12 7 -3 -7
21 -29 23 -23 42 -46 42 -53 0 -7 9 -9 21 -6 17 4 19 3 10 -6 -6 -6 -11 -15
-11 -21 0 -5 3 -7 6 -3 4 3 13 0 20 -8 17 -17 18 -29 2 -19 -7 4 -8 3 -4 -4 4
-6 14 -8 23 -5 12 5 14 3 8 -8 -8 -12 -6 -12 8 0 10 8 17 9 17 3 0 -6 -8 -16
-17 -22 -14 -8 -14 -10 -3 -9 28 3 41 -1 36 -10 -7 -10 22 -37 30 -28 9 9 -6
28 -17 22 -15 -10 -10 2 8 16 9 8 14 9 11 4 -4 -6 2 -17 13 -23 19 -12 19 -12
4 11 -8 13 -12 27 -8 32 5 4 3 5 -3 2 -8 -5 -13 5 -16 27 -3 24 0 32 9 29 7
-3 13 0 13 7 0 6 -3 9 -7 7 -5 -3 -17 -1 -28 4 -18 7 -18 8 -2 8 10 1 16 5 12
11 -3 5 -13 7 -23 4 -14 -5 -14 -4 -3 4 17 12 23 40 11 47 -5 3 -7 -4 -5 -15
2 -11 0 -18 -5 -15 -5 3 -7 14 -5 24 2 11 -3 22 -12 25 -13 5 -13 9 -2 22 10
13 10 17 -2 25 -11 7 -11 9 0 9 10 0 11 3 2 14 -8 10 -8 16 3 25 8 7 13 20 11
29 -4 27 4 32 31 22 16 -7 23 -7 19 0 -3 6 1 7 9 4 21 -8 20 -24 -1 -25 -12 0
-13 -2 -5 -6 7 -3 20 1 29 9 9 7 14 8 10 2 -3 -6 1 -20 9 -30 9 -10 13 -13 9
-6 -3 6 -2 12 3 12 6 0 12 -7 16 -15 3 -8 11 -15 18 -15 9 0 8 3 -2 10 -8 5
-10 10 -5 10 20 0 38 -17 26 -24 -6 -4 -9 -12 -5 -17 4 -6 11 -6 20 2 17 14
19 -2 2 -21 -11 -12 -10 -12 3 -2 8 6 26 8 39 5 17 -5 21 -3 15 7 -5 9 -4 11
4 6 9 -6 9 -11 0 -22 -7 -9 -8 -14 -3 -13 26 5 43 -2 38 -16 -4 -8 -1 -15 6
-15 6 0 9 4 5 9 -4 8 18 9 56 2 4 0 10 -9 13 -18 6 -15 4 -14 -14 2 -14 13
-24 15 -31 8 -7 -7 -4 -14 8 -24 16 -13 17 -12 4 4 -16 20 1 23 19 3 6 -8 19
-12 27 -9 12 5 14 3 8 -8 -4 -8 -4 -11 0 -6 5 4 17 -1 28 -10 11 -10 17 -12
13 -5 -5 7 -1 12 9 12 11 0 15 -5 12 -14 -6 -15 17 -16 30 -1 4 4 2 5 -4 1 -7
-4 -13 -2 -13 4 0 7 6 10 13 7 6 -2 11 -11 9 -21 -2 -9 2 -16 8 -16 6 0 8 -5
4 -12 -4 -7 -3 -8 4 -4 6 4 9 13 6 21 -7 18 21 14 44 -6 10 -9 24 -19 32 -24
12 -7 13 -6 3 6 -10 13 -10 16 2 16 13 0 19 -9 17 -28 -1 -3 5 -6 13 -6 8 0
12 4 9 9 -3 4 0 8 6 8 6 0 9 4 6 9 -4 5 5 4 18 -2 13 -7 22 -15 19 -20 -2 -4
-1 -7 4 -6 4 1 10 0 13 -1 25 -9 38 -6 32 8 -5 15 -4 15 11 3 16 -12 17 -12
10 5 -6 17 -5 18 13 4 10 -8 16 -10 12 -6 -4 5 -2 16 5 25 10 14 10 14 -5 3
-11 -9 -18 -10 -23 -2 -3 5 0 10 7 10 8 0 6 5 -5 11 -9 6 -14 15 -11 21 4 7 2
8 -5 4 -9 -6 -9 -11 0 -22 8 -10 8 -14 0 -14 -11 0 -15 13 -12 38 1 6 -4 13
-11 13 -28 3 -33 4 -33 10 0 4 -9 16 -19 28 -11 12 -14 21 -8 21 7 0 12 -5 12
-12 0 -6 3 -8 6 -5 4 4 2 13 -4 20 -7 8 -8 17 -4 22 4 4 -4 4 -18 1 -18 -5
-21 -5 -11 3 12 8 12 12 2 25 -10 12 -9 16 7 25 11 6 22 8 25 4 4 -3 14 0 24
8 11 9 14 10 9 2 -4 -8 -2 -13 4 -13 6 0 8 -5 4 -11 -4 -8 -9 -7 -15 2 -6 10
-8 7 -6 -8 1 -18 4 -20 17 -10 8 7 19 18 23 25 5 7 14 9 20 6 9 -5 9 -4 0 6
-9 10 -8 18 3 35 12 18 12 22 0 22 -8 0 -12 -6 -9 -13 2 -6 -1 -15 -6 -19 -6
-3 -8 -11 -5 -17 4 -7 2 -8 -4 -4 -8 5 -9 13 -3 24 5 9 9 22 10 27 1 6 8 9 16
9 37 -3 38 -4 26 -18 -9 -11 -9 -16 0 -22 7 -4 9 -3 5 4 -3 6 2 15 11 21 15 8
16 12 4 23 -12 11 -13 11 -6 -1 5 -10 4 -12 -4 -7 -6 4 -9 12 -5 17 3 5 10 7
15 4 5 -4 9 1 9 10 0 10 -5 13 -12 9 -10 -6 -10 -5 -1 8 7 8 10 17 7 21 -3 3
2 4 11 3 9 -1 21 -9 27 -17 7 -10 8 -5 3 16 -6 28 -5 28 8 11 8 -10 19 -16 25
-12 6 3 14 1 18 -5 5 -8 3 -9 -6 -4 -9 5 -11 4 -6 -4 6 -9 11 -9 22 0 8 6 18
9 21 5 4 -4 1 -11 -6 -15 -9 -6 -10 -11 -2 -15 6 -4 11 -3 11 2 0 5 9 12 21
15 17 5 18 3 7 -11 -7 -9 -8 -14 -3 -9 4 4 20 0 33 -9 23 -15 25 -15 19 -1 -3
9 -2 19 4 22 5 4 8 1 7 -7 -2 -7 3 -12 10 -11 11 3 16 -10 13 -30 -1 -5 3 -6
9 -2 6 3 8 10 5 15 -3 4 3 7 12 6 9 -2 19 -8 21 -14 2 -7 8 -12 13 -12 6 0 7
5 4 11 -4 6 2 5 13 -2 12 -8 19 -21 16 -33 -3 -20 -2 -20 10 -3 20 26 31 21
13 -6 -12 -19 -13 -24 -2 -24 8 0 12 4 9 9 -3 4 0 8 5 8 6 0 11 -4 11 -10 0
-5 8 -10 18 -10 13 0 14 2 3 9 -8 6 -11 16 -6 31 5 17 4 21 -5 15 -9 -5 -11
-4 -6 4 4 6 3 17 -3 24 -7 9 -7 17 1 27 8 13 9 12 4 -2 -3 -12 -1 -15 10 -11
20 7 -2 34 -25 31 -9 -2 -15 2 -14 8 12 66 12 66 -2 54 -20 -17 -37 -3 -25 20
14 25 13 27 -11 33 -16 4 -20 11 -16 26 3 11 2 20 -2 19 -3 -1 -14 2 -24 7
-12 5 -16 14 -11 29 4 11 3 18 -1 14 -13 -13 -45 11 -38 29 5 12 3 14 -8 9 -8
-4 -5 0 6 9 11 9 19 21 17 26 -1 6 2 8 8 4 6 -3 8 -10 6 -14 -3 -4 1 -8 9 -8
8 0 14 3 13 6 -2 20 5 22 26 8 22 -15 25 -15 38 0 8 10 8 14 1 10 -8 -5 -11
-1 -10 12 1 16 4 18 16 8 12 -10 13 -9 2 10 -10 19 -9 22 4 17 20 -8 19 6 -2
22 -15 10 -11 10 20 1 l37 -12 -22 -18 c-23 -19 -5 -13 20 6 9 7 9 13 1 24
-10 11 -9 12 5 7 19 -7 21 -25 4 -44 -7 -8 0 -4 16 10 16 14 26 20 23 14 -4
-6 6 -17 21 -23 26 -12 26 -12 9 6 -14 17 -15 20 -2 20 8 0 13 -2 11 -5 -2 -2
3 -12 12 -23 16 -18 18 -18 29 -2 12 15 13 14 13 -8 1 -21 2 -22 11 -6 11 18
29 14 29 -6 0 -7 -4 -6 -10 3 -6 9 -10 10 -10 3 0 -20 18 -24 29 -6 8 15 10
15 11 3 0 -9 -6 -22 -12 -29 -11 -11 -10 -12 0 -6 7 4 17 17 22 29 8 20 9 20
10 -4 0 -20 2 -22 10 -10 8 12 10 12 11 -5 l0 -20 9 20 c7 16 9 17 9 3 1 -9 6
-20 13 -24 7 -5 9 -2 5 9 -4 11 -2 14 9 10 9 -3 13 -13 9 -27 -2 -11 -2 -15 1
-8 3 6 12 12 20 12 9 0 12 -5 9 -10 -4 -6 -1 -9 7 -8 7 2 12 -3 10 -11 -3 -12
0 -12 13 -1 8 7 18 10 22 7 3 -4 15 -2 26 4 13 7 17 8 13 1 -4 -6 1 -15 9 -20
9 -5 17 -16 19 -25 1 -9 6 -20 10 -24 4 -4 6 -2 4 6 -2 7 3 16 11 19 9 3 11 0
6 -8 -5 -9 -4 -11 4 -6 6 4 14 1 17 -7 2 -7 10 -14 17 -15 7 -1 23 -3 36 -4
17 -2 25 2 27 15 1 9 -2 15 -7 11 -5 -3 -7 -9 -5 -13 3 -4 -1 -8 -9 -8 -12 0
-12 3 0 20 9 13 11 27 5 42 -5 13 -6 26 -2 31 4 4 2 4 -5 0 -9 -5 -10 -14 -2
-34 8 -20 7 -24 -1 -16 -6 6 -12 22 -12 35 -2 28 -17 51 -28 44 -5 -3 -6 3 -3
14 3 10 0 22 -6 25 -5 4 -7 14 -4 24 5 14 2 13 -11 -3 -10 -11 -14 -14 -10 -6
5 11 3 13 -10 8 -10 -4 -15 -3 -11 3 3 6 0 10 -7 10 -7 0 -3 8 10 18 21 17 22
18 3 18 -11 0 -17 -4 -15 -8 3 -4 -2 -8 -11 -8 -9 0 -14 4 -10 9 3 5 -1 15 -8
23 -16 15 -29 61 -16 52 5 -3 9 5 9 18 0 18 2 20 9 8 6 -8 8 -17 5 -21 -2 -4
0 -10 5 -14 6 -3 8 3 6 13 -2 14 3 18 23 16 15 -1 29 -3 32 -4 3 -1 9 -2 14
-1 5 1 4 -4 -3 -13 -9 -11 -9 -16 0 -22 8 -4 9 -3 5 4 -4 7 -1 12 9 12 10 0
13 5 9 12 -4 7 -3 8 5 4 8 -6 9 -12 2 -20 -13 -16 -4 -27 15 -19 8 3 11 10 7
16 -3 6 -1 7 6 3 6 -4 9 -12 6 -17 -7 -11 24 -7 44 5 9 6 12 5 7 -2 -3 -6 0
-14 8 -19 7 -4 16 -17 19 -28 4 -17 5 -16 6 4 1 24 1 24 17 5 8 -10 13 -13 9
-7 -4 9 -1 11 10 7 13 -5 13 -9 3 -23 -11 -14 -11 -14 3 -4 9 7 20 9 24 5 5
-4 5 1 2 10 -4 12 -2 15 8 11 8 -3 13 -9 10 -13 -3 -5 0 -12 6 -16 8 -5 9 -3
4 6 -6 10 -4 12 11 6 31 -12 36 -12 41 3 4 9 0 11 -15 7 -11 -4 -23 -2 -27 3
-3 6 0 8 8 5 19 -7 48 22 41 41 -3 8 -11 13 -17 12 -6 -1 -11 7 -12 18 0 11
-3 25 -7 31 -4 6 -2 11 5 12 7 0 21 3 32 6 11 2 23 5 27 5 4 1 5 9 2 19 -5 14
-4 15 5 2 8 -11 7 -18 -6 -27 -9 -7 -20 -10 -26 -6 -6 3 -7 1 -3 -6 6 -9 13
-9 31 3 17 11 25 12 36 3 12 -10 12 -9 1 3 -18 21 -15 32 7 25 11 -3 23 0 27
6 5 9 2 10 -9 6 -10 -3 -17 -2 -17 3 0 6 5 10 11 10 5 0 7 5 4 10 -4 6 -11 7
-17 4 -7 -4 -8 -2 -4 4 5 9 13 9 29 1 22 -12 22 -11 4 9 -14 15 -15 22 -6 28
8 4 10 3 5 -4 -4 -7 -2 -12 5 -12 6 0 9 8 6 19 -3 14 -1 18 9 14 8 -3 11 -10
7 -17 -3 -6 -3 -8 2 -4 4 4 15 2 23 -5 13 -10 14 -9 3 10 -10 19 -9 22 4 17 8
-4 15 -11 15 -16 0 -6 9 -8 21 -5 17 5 18 3 7 -11 -10 -12 -10 -14 0 -8 6 4
12 3 12 -3 0 -6 7 -7 17 -4 10 4 14 2 10 -4 -4 -6 0 -14 9 -17 11 -4 15 -2 11
7 -3 8 1 14 7 14 8 0 12 -12 10 -31 -1 -17 0 -25 3 -19 3 9 10 10 24 3 18 -10
19 20 19 1673 l0 1683 -149 0 c-105 0 -148 -3 -144 -10 4 -6 0 -5 -9 2 -11 9
-18 10 -23 2 -3 -6 -12 -7 -18 -3 -20 12 -37 12 -37 0 0 -8 -3 -8 -8 -2 -4 6
-16 11 -27 11 -11 0 -23 -5 -27 -11 -5 -6 -8 -6 -8 2 0 15 -50 13 -50 -2 0 -5
-4 -5 -8 2 -9 14 -52 13 -52 -2 0 -7 -3 -7 -8 0 -4 6 -16 11 -27 11 -11 0 -23
-5 -27 -11 -5 -6 -8 -6 -8 2 0 15 -50 13 -50 -2 0 -6 -3 -7 -8 0 -10 14 -52
18 -52 5 0 -6 5 -8 12 -4 7 5 8 3 3 -6 -7 -11 -10 -10 -19 1 -13 17 -48 19
-58 4 -5 -7 -8 -7 -8 0 0 6 -14 12 -31 13 -19 2 -28 -1 -24 -8 3 -6 11 -7 17
-4 7 4 8 2 4 -5 -6 -9 -11 -9 -21 -1 -19 16 -55 21 -55 7 0 -8 -3 -9 -8 -1 -9
13 -104 13 -114 -1 -5 -6 -8 -6 -8 1 0 7 -28 11 -75 11 -47 0 -72 -4 -68 -10
3 -6 1 -7 -6 -3 -23 14 -81 17 -81 4 0 -9 -3 -8 -10 2 -9 13 -11 13 -20 0 -5
-8 -10 -10 -10 -5 0 11 -85 14 -103 3z m-150 -192 c0 -8 -6 -12 -15 -9 -11 5
-11 7 0 14 7 5 13 9 14 9 0 0 1 -6 1 -14z m63 -256 c0 -5 -5 -10 -11 -10 -5 0
-7 5 -4 10 3 6 8 10 11 10 2 0 4 -4 4 -10z m45 -180 c-3 -4 0 -11 5 -13 6 -3
5 -4 -1 -3 -7 1 -13 10 -15 19 -1 9 2 15 7 11 5 -3 7 -9 4 -14z m35 -80 c0 -5
-2 -10 -4 -10 -3 0 -8 5 -11 10 -3 6 -1 10 4 10 6 0 11 -4 11 -10z m107 -186
c-3 -3 -12 -4 -19 -1 -8 3 -5 6 6 6 11 1 17 -2 13 -5z m233 -254 c0 -5 -5 -10
-11 -10 -5 0 -7 5 -4 10 3 6 8 10 11 10 2 0 4 -4 4 -10z m-559 -77 c13 -16 12
-17 -3 -4 -10 7 -18 15 -18 17 0 8 8 3 21 -13z m-601 -4 c0 -5 -4 -7 -10 -4
-5 3 -11 1 -11 -4 -1 -6 -2 -15 -3 -21 0 -5 -5 -10 -11 -9 -11 1 -8 18 7 36
13 16 28 17 28 2z m1027 -76 c0 -9 -4 -10 -14 -2 -9 8 -13 8 -13 0 0 -6 -5
-11 -11 -11 -8 0 -8 4 0 13 14 17 38 18 38 0z m-2821 -151 c1 -7 0 -8 -3 -2
-2 5 -9 8 -14 4 -5 -3 -9 0 -9 6 0 15 23 7 26 -8z m447 -67 c-3 -9 -8 -14 -10
-11 -3 3 -2 9 2 15 9 16 15 13 8 -4z m131 -83 c3 -5 -1 -9 -9 -9 -8 0 -12 4
-9 9 3 4 7 8 9 8 2 0 6 -4 9 -8z m-1014 -12 c0 -5 -5 -10 -11 -10 -5 0 -7 5
-4 10 3 6 8 10 11 10 2 0 4 -4 4 -10z m1336 -292 c15 -24 35 -49 43 -55 13
-11 13 -13 -1 -13 -9 0 -20 9 -23 20 -3 11 -11 20 -16 20 -6 0 -7 5 -3 12 5 8
2 9 -10 5 -9 -4 -15 -3 -11 2 8 14 -5 39 -23 44 -15 4 -15 5 -1 6 9 0 29 -18
45 -41z m-1579 -54 c-3 -3 -12 -4 -19 -1 -8 3 -5 6 6 6 11 1 17 -2 13 -5z
m2348 -24 c3 -5 1 -10 -4 -10 -6 0 -11 5 -11 10 0 6 2 10 4 10 3 0 8 -4 11
-10z m-655 -80 c0 -5 -2 -10 -4 -10 -3 0 -8 5 -11 10 -3 6 -1 10 4 10 6 0 11
-4 11 -10z m620 -40 c0 -5 -2 -10 -4 -10 -3 0 -8 5 -11 10 -3 6 -1 10 4 10 6
0 11 -4 11 -10z m-3094 -58 c1 -7 0 -8 -3 -2 -2 5 -9 10 -14 10 -6 0 -8 -4 -5
-8 3 -5 -1 -9 -9 -9 -11 0 -12 4 -3 14 13 16 31 13 34 -5z m-154 -49 c-6 -2
-9 -10 -6 -15 4 -7 2 -8 -5 -4 -13 9 -5 26 12 25 9 0 8 -2 -1 -6z m2836 -18
c-3 -3 -9 2 -12 12 -6 14 -5 15 5 6 7 -7 10 -15 7 -18z m-1992 0 c-8 -8 -18
-15 -22 -15 -3 0 -1 7 6 15 7 8 17 15 22 15 5 0 3 -7 -6 -15z m-521 -205 c3
-6 -1 -7 -9 -4 -18 7 -21 14 -7 14 6 0 13 -4 16 -10z m-646 -143 c0 -9 -2 -8
-6 1 -2 6 -10 9 -15 6 -7 -4 -8 -2 -4 5 9 13 26 5 25 -12z m704 -2 c-3 -9 -8
-14 -10 -11 -3 3 -2 9 2 15 9 16 15 13 8 -4z m510 -12 c-3 -7 -6 -13 -8 -13
-2 0 -5 6 -8 13 -3 8 1 14 8 14 7 0 11 -6 8 -14z m-1313 -113 c0 -5 -2 -10 -4
-10 -3 0 -8 5 -11 10 -3 6 -1 10 4 10 6 0 11 -4 11 -10z m935 -29 c3 -5 0 -13
-6 -17 -7 -4 -9 -3 -5 4 3 5 0 13 -6 15 -9 4 -10 6 -1 6 6 1 14 -3 18 -8z
m-1008 -48 c-4 -3 -1 -13 6 -22 11 -14 10 -14 -5 -2 -16 12 -16 31 -1 31 4 0
3 -3 0 -7z m-13 -41 c3 -5 -1 -9 -9 -9 -8 0 -12 4 -9 9 3 4 7 8 9 8 2 0 6 -4
9 -8z m1153 -52 c-1 -17 -12 -18 -12 -2 0 4 -4 13 -8 19 -6 9 -3 11 7 7 8 -3
14 -14 13 -24z m333 10 c0 -5 -2 -10 -4 -10 -3 0 -8 5 -11 10 -3 6 -1 10 4 10
6 0 11 -4 11 -10z m-1846 -18 c3 -5 -1 -9 -9 -9 -8 0 -12 4 -9 9 3 4 7 8 9 8
2 0 6 -4 9 -8z m-130 -467 c3 -8 1 -15 -4 -15 -6 0 -10 7 -10 15 0 8 2 15 4
15 2 0 6 -7 10 -15z m5926 -55 c0 -5 -5 -10 -11 -10 -5 0 -7 5 -4 10 3 6 8 10
11 10 2 0 4 -4 4 -10z m-26 -40 c-6 -6 -10 -3 -10 10 0 13 4 16 10 10 7 -7 7
-13 0 -20z m426 -16 c0 -8 -19 -13 -24 -6 -3 5 1 9 9 9 8 0 15 -2 15 -3z
m-6249 -13 c-9 -6 -10 -11 -2 -15 6 -4 9 -12 5 -17 -13 -22 -25 7 -15 39 1 1
7 2 14 2 9 0 8 -3 -2 -9z m5566 -93 c-3 -8 -6 -5 -6 6 -1 11 2 17 5 13 3 -3 4
-12 1 -19z m383 -18 c0 -5 -2 -10 -4 -10 -3 0 -8 5 -11 10 -3 6 -1 10 4 10 6
0 11 -4 11 -10z m-6019 -32 c-7 -7 -19 -22 -27 -33 -14 -19 -14 -19 -3 5 15
32 31 52 36 46 3 -3 0 -11 -6 -18z m5339 12 c0 -5 -5 -10 -11 -10 -5 0 -7 5
-4 10 3 6 8 10 11 10 2 0 4 -4 4 -10z m536 -36 c1 -9 0 -13 -4 -10 -3 4 -7 14
-8 22 -1 9 0 13 4 10 3 -4 7 -14 8 -22z m124 -38 c0 -2 -7 -7 -16 -10 -8 -3
-12 -2 -9 4 6 10 25 14 25 6z m60 -26 c0 -5 -5 -10 -11 -10 -5 0 -7 5 -4 10 3
6 8 10 11 10 2 0 4 -4 4 -10z m-6143 -86 c-9 -9 -28 6 -21 18 4 6 10 6 17 -1
6 -6 8 -13 4 -17z m5523 2 c0 -3 -4 -8 -10 -11 -5 -3 -10 -1 -10 4 0 6 5 11
10 11 6 0 10 -2 10 -4z m-1073 -155 c17 13 17 13 4 -4 -8 -10 -20 -16 -27 -13
-7 3 -16 1 -19 -4 -8 -13 -25 -13 -25 1 0 5 4 8 9 5 5 -3 12 2 15 11 6 14 9
15 16 3 7 -12 11 -12 27 1z m-4547 -56 c0 -12 -19 -12 -23 0 -4 9 -1 12 9 8 7
-3 14 -7 14 -8z m4497 -11 c-3 -3 -12 -4 -19 -1 -8 3 -5 6 6 6 11 1 17 -2 13
-5z m423 -154 c0 -5 -2 -10 -4 -10 -3 0 -8 5 -11 10 -3 6 -1 10 4 10 6 0 11
-4 11 -10z m-740 -40 c0 -5 -5 -10 -11 -10 -5 0 -7 5 -4 10 3 6 8 10 11 10 2
0 4 -4 4 -10z m-2259 -143 c-5 -5 -8 -15 -7 -21 2 -6 1 -8 -1 -3 -3 4 -10 4
-16 0 -8 -5 -8 -2 0 9 7 8 11 17 8 20 -3 2 2 5 10 5 10 0 12 -4 6 -10z m-47
-37 c-6 -6 -10 -3 -10 10 0 13 4 16 10 10 7 -7 7 -13 0 -20z m316 15 c0 -12
-19 -12 -23 0 -4 9 -1 12 9 8 7 -3 14 -7 14 -8z m-223 -27 c-3 -8 -6 -5 -6 6
-1 11 2 17 5 13 3 -3 4 -12 1 -19z m93 -52 c0 -2 -7 -7 -16 -10 -8 -3 -12 -2
-9 4 6 10 25 14 25 6z m-744 -21 c-1 -8 -5 -17 -8 -21 -5 -4 -4 16 1 34 3 9 9
-1 7 -13z m834 -37 c0 -4 -7 -8 -15 -8 -8 0 -15 4 -15 8 0 5 7 9 15 9 8 0 15
-4 15 -9z m-2375 -78 c3 -6 -1 -7 -9 -4 -18 7 -21 14 -7 14 6 0 13 -4 16 -10z
m1655 5 c0 -2 -6 -8 -13 -14 -10 -8 -14 -7 -14 2 0 8 6 14 14 14 7 0 13 -1 13
-2z m228 -50 c-3 -3 -9 2 -12 12 -6 14 -5 15 5 6 7 -7 10 -15 7 -18z m-928
-51 c0 -8 -19 -13 -24 -6 -3 5 1 9 9 9 8 0 15 -2 15 -3z m380 -59 c0 -7 -30
-13 -34 -7 -3 4 4 9 15 9 10 1 19 0 19 -2z m1381 -88 c-10 -9 -11 -8 -5 6 3
10 9 15 12 12 3 -3 0 -11 -7 -18z m-1456 -37 c3 -5 1 -10 -4 -10 -6 0 -11 5
-11 10 0 6 2 10 4 10 3 0 8 -4 11 -10z m1714 -11 c-15 -9 -32 -2 -24 11 3 5
13 6 21 3 12 -4 13 -8 3 -14z m88 6 c0 -8 -4 -12 -9 -9 -4 3 -8 9 -8 15 0 5 4
9 8 9 5 0 9 -7 9 -15z m-2002 -15 c3 -5 1 -10 -4 -10 -6 0 -11 5 -11 10 0 6 2
10 4 10 3 0 8 -4 11 -10z m125 -36 c0 -8 -19 -13 -24 -6 -3 5 1 9 9 9 8 0 15
-2 15 -3z m-155 -44 c-3 -5 -11 -10 -16 -10 -6 0 -7 5 -4 10 3 6 11 10 16 10
6 0 7 -4 4 -10z m-73 -17 c-6 -2 -9 -10 -6 -15 4 -7 2 -8 -5 -4 -13 9 -5 26
12 25 9 0 8 -2 -1 -6z m3938 -79 c0 -2 -8 0 -19 5 -10 6 -22 7 -26 3 -5 -4 -5
-1 -1 6 5 9 12 9 27 2 10 -6 19 -13 19 -16z m-5075 -24 c3 -5 1 -10 -4 -10 -6
0 -11 5 -11 10 0 6 2 10 4 10 3 0 8 -4 11 -10z m745 -255 c-5 -7 -9 -14 -7
-16 1 -2 0 -3 -2 -1 -11 7 -7 29 5 29 9 0 11 -4 4 -12z m-485 -125 c4 -6 1 -9
-7 -8 -7 2 -12 -3 -10 -10 1 -8 -2 -11 -8 -7 -8 5 -7 11 1 21 14 17 16 17 24
4z m662 -37 c0 -9 -4 -10 -14 -2 -7 6 -13 12 -13 14 0 1 6 2 13 2 8 0 14 -6
14 -14z m-338 -6 c-2 -1 -11 -8 -21 -15 -12 -10 -18 -10 -24 -1 -4 7 -3 9 4 5
6 -3 13 -2 17 4 3 5 11 10 17 10 6 0 9 -1 7 -3z m11 -32 c-10 -12 -10 -15 1
-15 12 0 12 -2 0 -9 -12 -8 -20 -8 -50 -2 -2 1 2 8 9 16 7 8 16 12 21 9 5 -3
9 0 9 5 0 6 5 11 11 11 8 0 8 -5 -1 -15z m1590 -1 c11 -12 11 -15 -1 -12 -8 2
-13 -4 -13 -14 1 -10 -4 -14 -13 -11 -12 5 -12 8 2 23 8 9 12 20 8 23 -3 4 -4
7 -1 7 3 0 11 -7 18 -16z m3118 -9 c-3 -3 -9 2 -12 12 -6 14 -5 15 5 6 7 -7
10 -15 7 -18z m-4643 -97 c4 -3 2 -9 -3 -12 -5 -3 -15 1 -21 8 -10 11 -9 14 3
12 9 -1 18 -5 21 -8z m-493 -62 c7 4 8 2 4 -5 -9 -13 -26 -5 -25 12 0 9 2 8 6
-1 2 -6 10 -9 15 -6z m4931 -151 c-3 -9 -8 -14 -10 -11 -3 3 -2 9 2 15 9 16
15 13 8 -4z m-3143 -85 c0 -5 -5 -10 -11 -10 -5 0 -7 5 -4 10 3 6 8 10 11 10
2 0 4 -4 4 -10z m-1585 -10 c-3 -5 -12 -10 -18 -10 -7 0 -6 4 3 10 19 12 23
12 15 0z m4610 -38 c-3 -3 -11 0 -18 7 -9 10 -8 11 6 5 10 -3 15 -9 12 -12z
m-2583 -176 c7 4 8 2 4 -5 -9 -13 -26 -5 -25 12 0 9 2 8 6 -1 2 -6 10 -9 15
-6z m-51 -49 c-10 -9 -11 -8 -5 6 3 10 9 15 12 12 3 -3 0 -11 -7 -18z m2309
-32 c-11 -13 -47 -13 -59 1 -3 4 2 4 12 1 9 -4 17 -3 17 1 0 4 9 8 21 9 16 2
18 -1 9 -12z m-2392 -60 c-3 -3 -9 2 -12 12 -6 14 -5 15 5 6 7 -7 10 -15 7
-18z m-498 5 c0 -5 -2 -10 -4 -10 -3 0 -8 5 -11 10 -3 6 -1 10 4 10 6 0 11 -4
11 -10z m2117 -42 c-3 -8 -6 -5 -6 6 -1 11 2 17 5 13 3 -3 4 -12 1 -19z
m-2132 2 c4 -6 3 -10 -2 -9 -20 3 -27 -2 -13 -11 11 -7 11 -10 2 -10 -7 0 -10
-5 -6 -12 4 -6 3 -8 -4 -5 -11 8 -11 25 1 45 10 15 14 15 22 2z m-35 -70 c-8
-5 -11 -10 -6 -10 5 0 3 -6 -3 -13 -6 -8 -9 -17 -6 -20 3 -4 2 -5 -2 -2 -3 3
-13 -1 -22 -7 -10 -8 -9 -4 3 10 11 12 16 22 11 22 -4 0 -2 7 5 15 7 8 18 15
24 15 6 0 4 -5 -4 -10z m455 -20 c-3 -5 -12 -10 -18 -10 -7 0 -6 4 3 10 19 12
23 12 15 0z m2509 -19 c-2 -3 -12 3 -22 13 -16 17 -16 18 5 5 12 -7 20 -15 17
-18z m-3000 -39 c3 -5 -1 -9 -9 -9 -8 0 -12 4 -9 9 3 4 7 8 9 8 2 0 6 -4 9 -8z
m424 -17 c-3 -3 -9 2 -12 12 -6 14 -5 15 5 6 7 -7 10 -15 7 -18z m2669 -37
c-3 -8 -6 -5 -6 6 -1 11 2 17 5 13 3 -3 4 -12 1 -19z m-3190 -120 c-3 -8 -6
-5 -6 6 -1 11 2 17 5 13 3 -3 4 -12 1 -19z m377 -73 c-4 -8 -8 -15 -10 -15 -2
0 -4 7 -4 15 0 8 4 15 10 15 5 0 7 -7 4 -15z m-421 -30 c-3 -9 -8 -14 -10 -11
-3 3 -2 9 2 15 9 16 15 13 8 -4z m-25 -60 c-3 -3 -9 2 -12 12 -6 14 -5 15 5 6
7 -7 10 -15 7 -18z m3352 7 c0 -5 -7 -9 -15 -9 -8 0 -12 4 -9 9 3 4 9 8 15 8
5 0 9 -4 9 -8z m15 -52 c-3 -5 -12 -10 -18 -10 -7 0 -6 4 3 10 19 12 23 12 15
0z m-3040 -190 c3 -5 1 -10 -4 -10 -6 0 -11 5 -11 10 0 6 2 10 4 10 3 0 8 -4
11 -10z m-549 -32 c4 -6 3 -8 -4 -4 -6 3 -13 2 -17 -4 -3 -5 -1 -10 5 -10 6 0
8 -5 4 -11 -4 -8 -9 -7 -15 2 -7 12 -9 11 -10 -1 -1 -8 -1 -19 0 -23 1 -5 -3
-6 -9 -2 -11 7 -6 19 18 48 18 20 19 20 28 5z m3139 -7 c-3 -6 -11 -11 -16
-11 -5 0 -4 6 3 14 14 16 24 13 13 -3z m-3242 -94 c3 -8 -3 -14 -15 -14 -16
-2 -17 1 -8 13 15 17 17 17 23 1z m3742 -36 c3 -5 2 -12 -3 -15 -5 -3 -9 1 -9
9 0 17 3 19 12 6z m-32 -144 c7 3 8 2 4 -2 -14 -16 -36 -14 -29 3 4 10 7 12
10 4 2 -7 9 -9 15 -5z m-3026 -23 c-3 -3 -12 -4 -19 -1 -8 3 -5 6 6 6 11 1 17
-2 13 -5z m-2 -24 c-3 -5 -12 -10 -18 -10 -7 0 -6 4 3 10 19 12 23 12 15 0z
m-165 -94 c0 -2 -7 -7 -16 -10 -8 -3 -12 -2 -9 4 6 10 25 14 25 6z m-800 -186
c0 -5 -5 -10 -11 -10 -5 0 -7 5 -4 10 3 6 8 10 11 10 2 0 4 -4 4 -10z m0 -41
c0 -5 -4 -9 -8 -9 -5 0 -9 7 -9 15 0 8 4 12 9 9 4 -3 8 -9 8 -15z"/>
<path d="M1426 2532 c-3 -5 1 -9 9 -9 8 0 12 4 9 9 -3 4 -7 8 -9 8 -2 0 -6 -4
-9 -8z"/>
<path d="M6523 7745 c0 -8 4 -12 9 -9 5 3 6 10 3 15 -9 13 -12 11 -12 -6z"/>
<path d="M6706 7225 c4 -8 12 -15 20 -15 20 0 17 7 -6 20 -16 9 -18 8 -14 -5z"/>
<path d="M4030 7114 c0 -8 5 -12 10 -9 6 4 8 11 5 16 -9 14 -15 11 -15 -7z"/>
<path d="M4050 7105 c-11 -21 -15 -23 -22 -10 -5 8 -16 15 -24 15 -9 0 -12 -5
-8 -12 4 -6 3 -8 -4 -4 -6 3 -13 2 -17 -4 -3 -5 -11 -10 -16 -10 -6 0 -3 7 5
16 19 19 21 31 3 15 -8 -6 -16 -8 -20 -5 -3 3 -8 -4 -12 -15 -3 -12 -11 -21
-16 -21 -6 0 -8 4 -5 8 2 4 -3 13 -13 19 -14 9 -18 8 -18 -3 0 -7 5 -10 10 -7
6 3 7 1 3 -6 -6 -9 -11 -9 -24 1 -13 11 -14 11 -7 -1 6 -11 4 -13 -7 -8 -9 3
-21 0 -27 -6 -9 -9 -11 -7 -6 8 4 16 3 15 -6 -2 -7 -14 -21 -23 -36 -23 -12 0
-23 -6 -23 -12 0 -9 -3 -8 -10 2 -8 13 -11 13 -22 1 -9 -10 -10 -12 -1 -7 9 5
11 2 7 -8 -3 -9 -9 -15 -12 -14 -4 0 -10 -1 -14 -2 -5 -1 -11 -3 -15 -5 -5 -1
-16 -5 -26 -10 -11 -4 -23 -3 -30 4 -8 8 -17 5 -34 -11 -21 -19 -26 -20 -34
-8 -9 13 -10 12 -6 -2 6 -18 -18 -32 -35 -21 -7 3 -8 1 -4 -5 6 -11 -27 -36
-36 -27 -3 3 -5 -2 -5 -10 0 -11 4 -12 13 -4 8 7 14 6 20 -2 4 -7 3 -9 -4 -5
-6 3 -13 2 -17 -4 -3 -6 -18 -8 -31 -6 -22 4 -24 3 -13 -10 10 -12 9 -13 -7
-7 -17 6 -18 5 -4 -12 8 -10 10 -16 4 -12 -7 4 -17 0 -24 -8 -6 -7 -17 -12
-24 -9 -7 3 -13 -2 -13 -11 0 -9 6 -14 14 -11 8 3 11 1 8 -4 -4 -6 -12 -10
-18 -9 -23 3 -40 -1 -34 -8 4 -3 2 -12 -4 -20 -9 -10 -15 -10 -25 -2 -8 6 -15
9 -15 5 -1 -3 -2 -12 -3 -18 -1 -7 -6 -12 -11 -11 -6 1 -9 -16 -9 -38 1 -21
-2 -37 -7 -34 -4 3 -6 12 -3 19 3 8 1 17 -5 21 -7 3 -8 0 -5 -9 4 -10 1 -16
-7 -16 -12 0 -12 -2 -1 -9 7 -4 14 -14 15 -22 2 -8 7 -20 11 -28 6 -9 5 -12 0
-8 -6 3 -16 1 -24 -4 -13 -9 -13 -10 0 -8 35 4 51 -1 44 -13 -4 -7 -4 -10 1
-6 4 4 15 2 23 -5 13 -10 14 -9 2 13 -9 19 -10 22 0 13 7 -6 19 -9 26 -6 8 3
14 0 14 -7 0 -6 -4 -8 -10 -5 -6 3 -7 -1 -3 -10 4 -13 8 -14 14 -4 6 10 11 10
26 -1 17 -14 17 -14 0 6 -14 17 -15 21 -2 21 8 0 15 -4 15 -9 0 -4 5 -8 11 -8
5 0 7 5 3 12 -4 7 -3 8 4 4 7 -4 21 -9 31 -11 15 -3 18 1 15 13 -5 14 -2 13
10 -2 9 -11 16 -15 16 -8 0 6 8 9 18 6 14 -5 14 -4 2 4 -8 6 -17 9 -20 7 -4
-2 -7 2 -7 9 0 11 5 11 26 0 16 -9 29 -10 36 -4 7 6 14 7 18 4 8 -8 3 18 -7
36 -4 8 1 5 12 -7 23 -26 34 -30 26 -9 -3 8 0 17 7 22 7 4 10 3 6 -3 -4 -6 0
-14 9 -17 23 -9 31 -7 15 3 -12 8 -12 12 -2 25 7 9 17 13 22 11 4 -3 13 3 19
12 11 17 11 17 6 1 -4 -13 0 -17 14 -15 11 2 23 7 27 12 5 4 3 5 -4 1 -6 -3
-14 -3 -17 2 -8 13 28 11 36 -2 5 -6 8 -2 8 11 0 12 5 25 12 29 7 4 8 3 4 -4
-4 -7 -3 -12 3 -12 5 0 18 -3 28 -6 17 -6 17 -6 0 8 -18 13 -18 15 -1 29 11 8
15 9 10 2 -4 -7 -2 -13 3 -13 6 0 11 8 11 18 0 9 4 13 8 7 4 -5 15 -11 25 -11
15 -2 16 1 5 14 -11 13 -10 15 4 9 10 -3 20 -2 24 4 4 6 11 6 20 -2 12 -10 13
-9 8 6 -5 12 -4 16 3 12 6 -4 14 0 17 9 5 13 -1 12 -31 -6 l-38 -21 25 24 c14
14 30 24 35 23 6 0 9 5 8 12 -2 6 0 11 5 11 20 -3 32 2 26 13 -4 6 -3 8 4 4 6
-3 14 -2 17 4 4 6 16 8 28 4 19 -6 20 -5 9 9 -10 12 -10 17 -1 23 7 4 9 3 5
-4 -4 -6 1 -10 13 -9 11 0 19 6 18 11 -2 9 2 11 36 15 8 1 8 4 -3 11 -10 6
-20 4 -31 -6 -12 -11 -19 -12 -24 -4 -4 6 -1 9 7 8 7 -2 12 2 11 7 -1 6 8 12
20 12 12 1 23 7 25 13 2 5 8 8 13 5 5 -4 6 2 2 11 -5 13 -3 15 7 9 9 -6 11 -4
5 5 -7 11 -12 9 -23 -8 -8 -12 -19 -22 -24 -22 -5 0 0 9 11 21 19 21 21 35 8
57 -5 7 -4 12 2 12 10 0 15 -13 13 -31 -1 -3 6 -6 14 -6 8 0 14 4 14 9 0 4 -4
8 -10 8 -5 0 -10 7 -10 16 0 8 5 12 10 9 6 -3 10 -1 10 6 0 7 -8 9 -21 6 -20
-5 -20 -5 -4 13 12 14 13 20 4 26 -7 4 -10 3 -6 -3 4 -6 -2 -13 -14 -16 -16
-4 -18 -3 -9 8 8 10 8 15 -1 21 -7 4 -9 3 -6 -3 4 -6 0 -14 -9 -17 -12 -4 -14
-1 -9 14 9 28 1 25 -15 -5z m-200 -61 c0 -8 -19 -13 -24 -6 -3 5 1 9 9 9 8 0
15 -2 15 -3z m17 -49 c0 -8 -4 -12 -9 -9 -4 3 -8 0 -8 -5 0 -13 13 -14 26 -2
14 15 92 17 106 3 9 -9 9 -12 -1 -12 -11 0 -11 -3 0 -17 11 -15 11 -16 -1 -5
-21 18 -35 15 -19 -5 12 -15 12 -16 -4 -10 -13 5 -17 2 -15 -10 2 -9 -3 -18
-10 -20 -8 -3 -10 2 -6 14 3 12 1 10 -8 -5 -8 -12 -17 -20 -20 -17 -3 4 -9 1
-14 -6 -4 -8 -3 -10 4 -5 7 4 12 2 12 -3 0 -6 -9 -11 -20 -11 -11 0 -20 -5
-20 -11 0 -5 6 -7 13 -3 9 5 9 4 0 -6 -10 -11 -10 -17 0 -29 11 -14 10 -14 -5
-2 -10 7 -15 17 -12 22 3 5 0 9 -6 9 -6 0 -8 5 -4 12 4 7 3 8 -5 4 -6 -4 -8
-12 -5 -18 5 -7 1 -9 -9 -5 -11 4 -14 2 -10 -8 3 -8 10 -12 17 -8 6 3 7 2 3
-2 -4 -5 -20 -11 -35 -13 -30 -4 -37 -9 -37 -25 0 -7 -6 -13 -12 -13 -7 -1
-14 -3 -15 -4 -2 -1 -14 -3 -28 -4 -14 -1 -37 -10 -52 -20 -16 -10 -34 -16
-43 -13 -8 4 -17 2 -20 -4 -4 -5 -11 -6 -17 -3 -6 4 -9 3 -6 -2 3 -5 0 -15 -8
-22 -14 -13 -20 -4 -14 23 1 5 -7 2 -18 -8 -10 -9 -22 -14 -27 -10 -4 5 -5 2
-1 -5 6 -9 11 -10 20 -3 9 8 13 7 13 -3 0 -9 -8 -13 -20 -10 -11 2 -29 -1 -41
-7 -19 -9 -19 -9 -3 4 9 8 17 17 17 21 0 11 -24 2 -37 -14 -6 -8 -15 -12 -19
-7 -4 4 -2 7 4 7 7 0 12 5 12 11 0 5 -4 7 -10 4 -6 -4 -7 1 -3 11 4 11 2 15
-4 11 -6 -4 -13 2 -16 13 -3 11 0 23 5 27 6 3 8 1 5 -4 -7 -11 22 -28 31 -18
3 3 0 5 -7 5 -7 0 -10 4 -6 9 3 5 1 12 -5 16 -15 9 -2 25 15 19 8 -4 12 -11 8
-17 -3 -6 -1 -7 6 -3 6 4 9 11 6 16 -6 10 24 22 37 14 6 -4 5 2 -1 14 -9 18
-8 23 10 33 13 6 19 7 15 1 -3 -6 -2 -13 4 -17 5 -3 10 1 10 9 0 18 11 20 28
6 9 -7 9 -7 2 2 -16 19 -12 27 13 21 22 -5 22 -5 2 10 -20 16 -19 16 4 10 21
-5 23 -3 18 13 -7 19 -7 19 8 0 11 -15 17 -16 28 -8 8 7 18 8 22 4 5 -4 5 -1
1 6 -6 9 -11 10 -20 3 -9 -8 -13 -7 -13 2 0 9 13 13 39 11 21 -1 35 2 32 7
-10 17 17 39 43 35 15 -3 26 1 30 10 3 8 9 14 15 14 5 0 6 -5 2 -12 -5 -8 -2
-9 10 -5 9 4 15 3 12 -2 -3 -5 2 -15 11 -22 14 -12 16 -12 8 1 -11 18 -14 51
-4 44 4 -2 10 0 14 6 9 14 12 13 12 -5z m-245 -12 c-6 -3 -9 -10 -6 -15 4 -7
2 -8 -4 -4 -7 4 -12 2 -12 -5 0 -7 -3 -9 -7 -6 -3 4 2 16 12 27 10 11 21 17
24 14 3 -4 0 -9 -7 -11z m22 -29 c3 -8 2 -12 -4 -9 -6 3 -10 10 -10 16 0 14 7
11 14 -7z m-64 1 c0 -2 -13 -11 -30 -20 -38 -19 -40 -11 -2 9 31 17 32 18 32
11z m350 -69 c0 -3 -4 -8 -10 -11 -5 -3 -10 -1 -10 4 0 6 5 11 10 11 6 0 10
-2 10 -4z m-439 -23 c13 -16 12 -17 -3 -4 -10 7 -18 15 -18 17 0 8 8 3 21 -13z
m329 -78 c-7 -8 -17 -15 -23 -15 -6 0 -2 7 9 15 25 19 30 19 14 0z m-119 -42
c12 -16 12 -17 -2 -6 -9 7 -20 9 -24 5 -5 -4 -5 -1 -1 6 9 16 11 15 27 -5z
m-371 3 c0 -2 -7 -7 -16 -10 -8 -3 -12 -2 -9 4 6 10 25 14 25 6z m284 -41 c-4
-8 -11 -12 -17 -8 -8 5 -7 8 1 11 7 2 9 9 6 14 -4 7 -2 8 4 4 6 -4 9 -13 6
-21z m56 15 c0 -5 -2 -10 -4 -10 -3 0 -8 5 -11 10 -3 6 -1 10 4 10 6 0 11 -4
11 -10z m-118 -79 c8 11 9 11 6 1 -4 -16 -22 -18 -24 -2 -2 7 -1 6 3 -1 4 -8
8 -7 15 2z"/>
<path d="M3790 6960 c0 -5 5 -10 11 -10 5 0 7 5 4 10 -3 6 -8 10 -11 10 -2 0
-4 -4 -4 -10z"/>
<path d="M3725 6950 c-3 -5 -1 -11 5 -15 5 -3 10 -2 10 4 0 6 7 8 15 5 8 -4
15 -2 15 3 0 12 -38 14 -45 3z"/>
<path d="M3723 6784 c0 -9 4 -11 12 -4 7 5 14 9 16 7 2 -1 3 0 1 2 -7 11 -29
7 -29 -5z"/>
<path d="M3695 6780 c3 -5 8 -10 11 -10 2 0 4 5 4 10 0 6 -5 10 -11 10 -5 0
-7 -4 -4 -10z"/>
<path d="M3915 7100 c3 -5 8 -10 11 -10 2 0 4 5 4 10 0 6 -5 10 -11 10 -5 0
-7 -4 -4 -10z"/>
<path d="M3696 7035 c-9 -26 -7 -32 5 -12 6 10 9 21 6 23 -2 3 -7 -2 -11 -11z"/>
<path d="M3670 7021 c0 -8 -7 -11 -17 -6 -15 5 -16 4 -5 -6 9 -10 15 -10 24
-1 6 6 9 15 5 19 -4 3 -7 1 -7 -6z"/>
<path d="M6126 6978 c3 -4 9 -8 15 -8 5 0 9 4 9 8 0 5 -7 9 -15 9 -8 0 -12 -4
-9 -9z"/>
<path d="M6185 6961 c-3 -5 -2 -12 3 -15 5 -3 9 1 9 9 0 17 -3 19 -12 6z"/>
<path d="M3407 6863 c-4 -3 -7 -11 -7 -17 0 -6 5 -5 12 2 6 6 9 14 7 17 -3 3
-9 2 -12 -2z"/>
<path d="M3967 6846 c-15 -12 -24 -25 -21 -29 4 -4 14 2 22 14 10 15 17 17 27
9 10 -8 13 -7 11 4 -4 25 -10 25 -39 2z"/>
<path d="M3327 6785 c3 -8 9 -12 14 -9 12 7 11 11 -5 17 -10 4 -13 1 -9 -8z"/>
<path d="M3646 6671 c-3 -4 6 -7 19 -7 14 0 22 2 19 5 -8 8 -34 10 -38 2z"/>
<path d="M3247 6659 c7 -7 15 -10 18 -7 3 3 -2 9 -12 12 -14 6 -15 5 -6 -5z"/>
<path d="M3995 6640 c3 -5 8 -10 11 -10 2 0 4 5 4 10 0 6 -5 10 -11 10 -5 0
-7 -4 -4 -10z"/>
<path d="M3803 6585 c0 -8 4 -12 9 -9 5 3 6 10 3 15 -9 13 -12 11 -12 -6z"/>
<path d="M3724 6554 c-18 -14 -18 -15 4 -4 12 6 22 13 22 15 0 8 -5 6 -26 -11z"/>
<path d="M5759 6458 c-7 -13 -4 -48 3 -48 6 0 8 6 5 14 -3 7 0 19 6 25 8 8 8
11 -1 11 -7 0 -13 -1 -13 -2z"/>
<path d="M5690 6061 c-7 -15 -7 -22 2 -27 7 -4 10 -4 6 1 -4 4 -3 16 3 26 5
11 7 19 5 19 -3 0 -10 -9 -16 -19z"/>
<path d="M2628 5903 c7 -3 16 -2 19 1 4 3 -2 6 -13 5 -11 0 -14 -3 -6 -6z"/>
<path d="M5235 5901 c-3 -5 -2 -12 3 -15 5 -3 9 1 9 9 0 17 -3 19 -12 6z"/>
<path d="M3258 5773 c7 -3 16 -2 19 1 4 3 -2 6 -13 5 -11 0 -14 -3 -6 -6z"/>
<path d="M2270 5756 c0 -2 7 -7 16 -10 8 -3 12 -2 9 4 -6 10 -25 14 -25 6z"/>
<path d="M2196 5667 c3 -10 9 -15 12 -12 3 3 0 11 -7 18 -10 9 -11 8 -5 -6z"/>
<path d="M2796 5558 c3 -5 10 -6 15 -3 13 9 11 12 -6 12 -8 0 -12 -4 -9 -9z"/>
<path d="M3359 5362 c9 -7 10 -11 2 -15 -7 -4 -8 -5 -1 -4 16 3 14 21 -2 25
-10 3 -10 2 1 -6z"/>
<path d="M1508 5338 c-5 -11 -2 -15 10 -14 9 2 18 9 20 17 3 12 2 12 -6 0 -8
-11 -10 -11 -14 0 -3 10 -6 9 -10 -3z"/>
<path d="M3036 5277 c3 -10 9 -15 12 -12 3 3 0 11 -7 18 -10 9 -11 8 -5 -6z"/>
<path d="M3116 5217 c3 -10 9 -15 12 -12 3 3 0 11 -7 18 -10 9 -11 8 -5 -6z"/>
<path d="M1430 5186 c0 -2 7 -6 15 -10 8 -3 15 -1 15 4 0 6 -7 10 -15 10 -8 0
-15 -2 -15 -4z"/>
<path d="M1433 5155 c0 -8 4 -12 9 -9 5 3 6 10 3 15 -9 13 -12 11 -12 -6z"/>
<path d="M3269 5113 c-13 -16 -12 -17 4 -4 9 7 17 15 17 17 0 8 -8 3 -21 -13z"/>
<path d="M7754 4675 c0 -13 3 -22 7 -19 8 4 6 30 -2 38 -3 3 -5 -5 -5 -19z"/>
<path d="M7430 4660 c0 -5 5 -10 10 -10 6 0 10 5 10 10 0 6 -4 10 -10 10 -5 0
-10 -4 -10 -10z"/>
<path d="M7540 4605 c-7 -9 -8 -15 -2 -15 5 0 12 7 16 15 3 8 4 15 2 15 -2 0
-9 -7 -16 -15z"/>
<path d="M7570 4610 c0 -5 5 -10 11 -10 5 0 7 5 4 10 -3 6 -8 10 -11 10 -2 0
-4 -4 -4 -10z"/>
<path d="M6846 4467 c3 -10 9 -15 12 -12 3 3 0 11 -7 18 -10 9 -11 8 -5 -6z"/>
<path d="M7372 4404 c10 -10 20 -15 24 -12 3 4 -5 12 -18 18 -22 12 -22 12 -6
-6z"/>
<path d="M6899 4273 c-13 -16 -12 -17 4 -4 16 13 21 21 13 21 -2 0 -10 -8 -17
-17z"/>
<path d="M1303 4256 c-9 -11 -9 -15 0 -19 7 -3 14 3 14 14 2 22 2 22 -14 5z"/>
<path d="M6575 4201 c-3 -5 -2 -12 3 -15 5 -3 9 1 9 9 0 17 -3 19 -12 6z"/>
<path d="M6956 4147 c3 -10 9 -15 12 -12 3 3 0 11 -7 18 -10 9 -11 8 -5 -6z"/>
<path d="M6860 4120 c-9 -6 -10 -10 -3 -10 6 0 15 5 18 10 8 12 4 12 -15 0z"/>
<path d="M6965 4109 c-10 -15 3 -25 16 -12 7 7 7 13 1 17 -6 3 -14 1 -17 -5z"/>
<path d="M6420 4059 c0 -5 -6 -7 -12 -3 -9 5 -9 3 1 -9 15 -19 33 -13 24 8 -6
17 -13 20 -13 4z"/>
<path d="M5770 4035 c5 -7 7 -15 3 -18 -3 -4 -1 -7 5 -7 6 0 10 8 9 18 0 10
-7 19 -14 19 -9 0 -10 -4 -3 -12z"/>
<path d="M5485 3990 c-3 -5 -2 -10 4 -10 5 0 13 5 16 10 3 6 2 10 -4 10 -5 0
-13 -4 -16 -10z"/>
<path d="M5766 3981 c-3 -4 7 -13 22 -20 23 -10 25 -10 10 2 -10 8 -15 17 -11
20 3 4 1 7 -5 7 -6 0 -13 -4 -16 -9z"/>
<path d="M6454 3973 c2 -12 -1 -24 -8 -27 -8 -3 -8 -5 1 -5 17 -1 22 11 12 34
-9 19 -9 19 -5 -2z"/>
<path d="M5485 3960 c-3 -5 -2 -10 4 -10 5 0 13 5 16 10 3 6 2 10 -4 10 -5 0
-13 -4 -16 -10z"/>
<path d="M1146 3942 c-2 -4 -1 -14 4 -22 7 -11 9 -9 7 8 -1 24 -3 26 -11 14z"/>
<path d="M6293 3865 c0 -8 4 -12 8 -9 4 2 10 -2 12 -8 4 -8 6 -9 6 -2 1 6 -5
17 -12 23 -10 8 -14 7 -14 -4z"/>
<path d="M6410 3840 c0 -5 5 -10 11 -10 5 0 7 5 4 10 -3 6 -8 10 -11 10 -2 0
-4 -4 -4 -10z"/>
<path d="M1095 3760 c-3 -5 -2 -10 4 -10 5 0 13 5 16 10 3 6 2 10 -4 10 -5 0
-13 -4 -16 -10z"/>
<path d="M2885 3710 c-10 -12 -13 -20 -7 -20 7 0 12 5 12 11 0 5 4 8 9 4 5 -3
12 -1 15 4 12 19 -12 20 -29 1z"/>
<path d="M5406 3711 c-13 -14 -14 -21 -5 -27 7 -4 10 -3 5 4 -3 6 2 15 11 21
10 5 15 12 12 15 -3 4 -14 -2 -23 -13z"/>
<path d="M1080 3694 c0 -8 5 -12 10 -9 6 4 8 11 5 16 -9 14 -15 11 -15 -7z"/>
<path d="M3425 3670 c-3 -5 -2 -10 4 -10 5 0 13 5 16 10 3 6 2 10 -4 10 -5 0
-13 -4 -16 -10z"/>
<path d="M3153 3655 c0 -8 4 -12 9 -9 4 3 8 9 8 15 0 5 -4 9 -8 9 -5 0 -9 -7
-9 -15z"/>
<path d="M2630 3643 c0 -6 8 -17 18 -24 16 -13 16 -13 2 6 -8 11 -16 22 -17
24 -2 2 -3 0 -3 -6z"/>
<path d="M2480 3606 c0 -2 8 -10 18 -17 15 -13 16 -12 3 4 -13 16 -21 21 -21
13z"/>
<path d="M2644 3578 l-19 -23 23 19 c12 11 22 21 22 23 0 8 -8 2 -26 -19z"/>
<path d="M2466 3551 c-4 -5 -2 -12 3 -15 5 -4 12 -2 15 3 4 5 2 12 -3 15 -5 4
-12 2 -15 -3z"/>
<path d="M3114 3546 c1 -8 5 -18 8 -22 4 -3 5 1 4 10 -1 8 -5 18 -8 22 -4 3
-5 -1 -4 -10z"/>
<path d="M2575 3540 c3 -5 8 -10 11 -10 2 0 4 5 4 10 0 6 -5 10 -11 10 -5 0
-7 -4 -4 -10z"/>
<path d="M5410 3541 c0 -6 4 -12 8 -15 5 -3 9 1 9 9 0 8 -4 15 -9 15 -4 0 -8
-4 -8 -9z"/>
<path d="M2890 3519 c0 -5 5 -7 10 -4 6 3 10 8 10 11 0 2 -4 4 -10 4 -5 0 -10
-5 -10 -11z"/>
<path d="M2745 3481 c-3 -5 -2 -12 3 -15 5 -3 9 1 9 9 0 17 -3 19 -12 6z"/>
<path d="M5492 3477 c-8 -10 -6 -13 11 -14 12 0 16 1 9 4 -6 3 -10 9 -6 14 8
14 -2 11 -14 -4z"/>
<path d="M5570 3420 c0 -6 -5 -8 -12 -4 -6 4 -3 -4 8 -18 10 -14 21 -24 23
-22 2 2 -1 10 -8 18 -9 11 -9 15 1 18 9 3 9 6 0 12 -7 4 -12 2 -12 -4z"/>
<path d="M2399 3393 c-12 -16 -12 -17 2 -6 9 7 19 10 22 6 4 -3 7 -1 7 5 0 17
-16 15 -31 -5z"/>
<path d="M1950 3350 c-11 -11 -20 -24 -20 -30 0 -5 0 -13 0 -17 0 -4 7 -8 16
-9 11 -2 13 1 6 8 -11 11 -4 48 9 48 4 0 6 -10 4 -21 -3 -12 -1 -19 2 -15 7 7
13 56 6 56 -1 0 -12 -9 -23 -20z"/>
<path d="M4110 3291 c0 -5 5 -13 10 -16 6 -3 10 -2 10 4 0 5 -4 13 -10 16 -5
3 -10 2 -10 -4z"/>
<path d="M877 3123 c5 -12 3 -14 -7 -8 -9 5 -11 4 -6 -4 6 -9 11 -9 22 0 17
14 17 16 0 22 -11 4 -13 1 -9 -10z"/>
<path d="M5845 3120 c3 -5 8 -10 11 -10 2 0 4 5 4 10 0 6 -5 10 -11 10 -5 0
-7 -4 -4 -10z"/>
<path d="M1887 3114 c-8 -8 1 -24 12 -24 4 0 8 7 8 15 0 16 -9 20 -20 9z"/>
<path d="M1998 3053 c6 -2 12 -14 13 -26 0 -12 3 -16 6 -9 2 6 9 9 15 6 6 -4
5 2 -1 15 -7 11 -19 21 -29 20 -10 0 -12 -3 -4 -6z"/>
<path d="M3241 2936 c-8 -10 -9 -16 -1 -21 5 -3 10 -5 11 -3 4 18 7 38 4 38
-1 0 -8 -6 -14 -14z"/>
<path d="M5990 2940 c0 -5 5 -10 11 -10 5 0 7 5 4 10 -3 6 -8 10 -11 10 -2 0
-4 -4 -4 -10z"/>
<path d="M1866 2878 c3 -5 10 -6 15 -3 13 9 11 12 -6 12 -8 0 -12 -4 -9 -9z"/>
<path d="M1849 2803 c-13 -16 -12 -17 4 -4 9 7 17 15 17 17 0 8 -8 3 -21 -13z"/>
<path d="M3176 2804 c-9 -8 -14 -20 -11 -25 6 -8 -9 -13 -28 -10 -5 1 -6 -3
-2 -9 4 -7 13 -7 26 1 12 6 18 13 15 16 -3 4 1 15 11 25 20 22 11 24 -11 2z"/>
<path d="M970 2760 c0 -5 5 -10 11 -10 5 0 7 5 4 10 -3 6 -8 10 -11 10 -2 0
-4 -4 -4 -10z"/>
<path d="M1667 2733 c-10 -9 -9 -23 1 -23 5 0 9 7 9 15 0 17 -1 18 -10 8z"/>
<path d="M1813 2571 c0 -11 5 -18 9 -15 4 3 5 11 1 19 -7 21 -12 19 -10 -4z"/>
<path d="M1576 2567 c3 -10 9 -15 12 -12 3 3 0 11 -7 18 -10 9 -11 8 -5 -6z"/>
<path d="M1077 2545 c-18 -13 -18 -14 2 -24 26 -14 26 -14 28 9 2 26 -8 31
-30 15z m23 -5 c0 -5 -5 -10 -11 -10 -5 0 -7 5 -4 10 3 6 8 10 11 10 2 0 4 -4
4 -10z"/>
<path d="M1545 2480 c-3 -5 1 -10 10 -10 9 0 13 5 10 10 -3 6 -8 10 -10 10 -2
0 -7 -4 -10 -10z"/>
<path d="M1548 2453 c7 -3 16 -2 19 1 4 3 -2 6 -13 5 -11 0 -14 -3 -6 -6z"/>
<path d="M1135 2340 c-3 -5 -1 -10 4 -10 6 0 11 5 11 10 0 6 -2 10 -4 10 -3 0
-8 -4 -11 -10z"/>
<path d="M2860 2279 c0 -5 5 -7 10 -4 6 3 10 8 10 11 0 2 -4 4 -10 4 -5 0 -10
-5 -10 -11z"/>
<path d="M6046 2267 c3 -10 9 -15 12 -12 3 3 0 11 -7 18 -10 9 -11 8 -5 -6z"/>
<path d="M1345 2131 c-3 -6 3 -9 14 -8 11 0 17 5 15 9 -7 11 -22 10 -29 -1z"/>
<path d="M2754 2098 c-4 -7 -4 -10 1 -6 4 4 14 3 21 -3 13 -10 32 6 20 18 -3
4 -6 1 -6 -7 0 -10 -3 -10 -14 -1 -11 9 -16 9 -22 -1z"/>
<path d="M3610 1944 c0 -8 5 -12 10 -9 6 4 8 11 5 16 -9 14 -15 11 -15 -7z"/>
<path d="M2680 1909 c0 -5 5 -7 10 -4 6 3 10 8 10 11 0 2 -4 4 -10 4 -5 0 -10
-5 -10 -11z"/>
<path d="M5604 1892 c-9 -5 -8 -10 1 -19 11 -10 13 -9 12 7 -1 11 -1 20 -2 20
0 0 -5 -4 -11 -8z"/>
<path d="M5465 1760 c4 -6 11 -8 16 -5 14 9 11 15 -7 15 -8 0 -12 -5 -9 -10z"/>
<path d="M4660 1741 c0 -6 4 -13 10 -16 6 -3 7 1 4 9 -7 18 -14 21 -14 7z"/>
<path d="M4825 1740 c-3 -5 -1 -10 4 -10 6 0 11 5 11 10 0 6 -2 10 -4 10 -3 0
-8 -4 -11 -10z"/>
<path d="M4456 1731 c-3 -5 1 -12 10 -15 22 -8 25 -4 9 11 -8 7 -16 9 -19 4z"/>
<path d="M4490 1735 c0 -2 6 -8 13 -14 10 -8 14 -7 14 2 0 8 -6 14 -14 14 -7
0 -13 -1 -13 -2z"/>
<path d="M4630 1730 c0 -5 5 -10 11 -10 5 0 7 5 4 10 -3 6 -8 10 -11 10 -2 0
-4 -4 -4 -10z"/>
<path d="M4776 1731 c9 -9 34 -9 34 -1 0 5 -9 8 -20 7 -10 -1 -17 -3 -14 -6z"/>
<path d="M4000 1710 c-8 -6 -10 -10 -5 -11 6 0 20 -2 33 -5 12 -2 22 1 22 8 0
6 -3 8 -7 5 -3 -4 -11 -3 -17 3 -7 5 -17 5 -26 0z"/>
<path d="M5077 1697 c-3 -8 1 -14 8 -14 7 0 11 6 8 14 -3 7 -6 13 -8 13 -2 0
-5 -6 -8 -13z"/>
<path d="M5090 1659 c0 -5 5 -7 10 -4 6 3 10 8 10 11 0 2 -4 4 -10 4 -5 0 -10
-5 -10 -11z"/>
<path d="M5663 1535 c2 -16 10 -31 18 -33 8 -2 10 0 4 5 -5 4 -12 17 -13 28
-6 32 -14 32 -9 0z"/>
<path d="M2925 1500 c-3 -5 -1 -10 4 -10 6 0 11 5 11 10 0 6 -2 10 -4 10 -3 0
-8 -4 -11 -10z"/>
<path d="M2373 1385 c0 -8 4 -15 9 -15 4 0 8 4 8 9 0 6 -4 12 -8 15 -5 3 -9
-1 -9 -9z"/>
<path d="M5224 1288 c9 -14 14 -27 11 -30 -3 -3 1 -8 10 -11 14 -6 14 -4 0 23
-8 16 -20 32 -26 36 -6 3 -4 -5 5 -18z"/>
<path d="M2794 1282 c3 -5 0 -13 -6 -15 -9 -4 -10 -6 -1 -6 17 -1 25 16 12 25
-7 4 -9 3 -5 -4z"/>
<path d="M5236 1202 c-3 -5 1 -9 9 -9 8 0 15 4 15 9 0 4 -4 8 -9 8 -6 0 -12
-4 -15 -8z"/>
<path d="M5230 1176 c0 -2 8 -10 18 -17 15 -13 16 -12 3 4 -13 16 -21 21 -21
13z"/>
<path d="M2270 1160 c0 -5 5 -10 11 -10 5 0 7 5 4 10 -3 6 -8 10 -11 10 -2 0
-4 -4 -4 -10z"/>
<path d="M2727 1099 c7 -7 15 -10 18 -7 3 3 -2 9 -12 12 -14 6 -15 5 -6 -5z"/>
<path d="M2062 934 c-7 -8 -8 -14 -3 -14 10 0 25 19 20 25 -2 1 -10 -3 -17
-11z"/>
<path d="M5267 899 c6 -23 9 -24 16 -5 3 8 0 17 -7 19 -10 4 -12 -1 -9 -14z"/>
<path d="M2717 889 c7 -7 15 -10 18 -7 3 3 -2 9 -12 12 -14 6 -15 5 -6 -5z"/>
<path d="M5269 836 c6 -7 7 -17 3 -22 -4 -4 1 -2 11 5 19 15 16 24 -9 27 -11
2 -12 -1 -5 -10z"/>
<path d="M2735 821 c-3 -5 -2 -12 3 -15 5 -3 9 1 9 9 0 17 -3 19 -12 6z"/>
<path d="M2744 735 c0 -13 3 -22 7 -19 8 4 6 30 -2 38 -3 3 -5 -5 -5 -19z"/>
<path d="M5298 713 c7 -3 16 -2 19 1 4 3 -2 6 -13 5 -11 0 -14 -3 -6 -6z"/>
<path d="M5313 660 c-1 -11 2 -22 8 -25 5 -4 8 3 6 14 -4 28 -12 34 -14 11z"/>
<path d="M5695 580 c3 -5 8 -10 11 -10 2 0 4 5 4 10 0 6 -5 10 -11 10 -5 0 -7
-4 -4 -10z"/>
<path d="M1764 502 c3 -5 0 -13 -6 -15 -9 -4 -10 -6 -1 -6 17 -1 25 16 12 25
-7 4 -9 3 -5 -4z"/>
<path d="M2217 413 c-4 -3 -7 -11 -7 -17 0 -6 5 -5 12 2 6 6 9 14 7 17 -3 3
-9 2 -12 -2z"/>
<path d="M1820 279 c-12 -21 -11 -22 2 -12 10 9 18 9 25 2 8 -8 13 -7 18 3 5
7 5 10 0 6 -4 -4 -14 0 -20 9 -11 15 -14 14 -25 -8z"/>
</g>
</svg>
